<svg xmlns="http://www.w3.org/2000/svg" xmlns:xlink="http://www.w3.org/1999/xlink" width="668" height="378" viewBox="0 0 668 378">
  <defs>
    <linearGradient id="linear-gradient" x1="0.149" y1="0.202" x2="0.974" y2="0.871" gradientUnits="objectBoundingBox">
      <stop offset="0" stop-color="#7804cc"/>
      <stop offset="1" stop-color="#d90177"/>
    </linearGradient>
  </defs>
  <g id="Base_Box" data-name="Base Box" transform="translate(-626 -351)">
    <g id="Base_Box-2" data-name="Base Box">
      <rect id="Base_White" data-name="Base White" width="668" height="378" transform="translate(626 351)" fill="#fff"/>
      <g id="Border" transform="translate(626 351)" fill="none" stroke="#7147fd" stroke-width="3">
        <rect width="668" height="378" stroke="none"/>
        <rect x="1.5" y="1.5" width="665" height="375" fill="none"/>
      </g>
      <rect id="Purple_Top_Ribbon" data-name="Purple Top Ribbon" width="668" height="46" transform="translate(626 351)" fill="url(#linear-gradient)"/>
    </g>
    <g id="Text_Matter" data-name="Text Matter">
      <text id="Order_Summary" data-name="Order Summary" transform="translate(643 382)" fill="#fff" font-size="17" font-family="Graphik-Semibold, Graphik" font-weight="600"><tspan x="0" y="0">Order Summary</tspan></text>
      <text id="You_ll_be_securely_redirected_to_Visa_to_enter_your_password_and_complete_your_purchase." data-name="You’ll be securely redirected to Visa to enter your password and complete your purchase." transform="translate(660 433)" font-size="14" font-family="Graphik-Regular, Graphik"><tspan x="0" y="0">You’ll be securely redirected to Visa to enter your password and complete your purchase.</tspan></text>
      <text id="You_ll_be_securely_redirected_to_Visa_to_enter_your_password_and_complete_your_purchase.-2" data-name="You’ll be securely redirected to Visa to enter your
password and complete your purchase." transform="translate(942 624)" font-size="14" font-family="Graphik-Regular, Graphik"><tspan x="0" y="0">You’ll be securely redirected to Visa to enter your</tspan><tspan x="0" y="18">password and complete your purchase.</tspan></text>
      <text id="By_placing_your_order_you_agree_to_ASE_s_privacy_notice_and_conditions_of_use." data-name="By placing your order, you agree to ASE’s privacy notice and conditions of use." transform="translate(660 461)" font-size="14" font-family="Graphik-Regular, Graphik"><tspan x="0" y="0">By placing your order, you agree to ASE’s </tspan><tspan y="0" fill="#39b3ff">privacy notice</tspan><tspan y="0" xml:space="preserve"> and </tspan><tspan y="0" fill="#39b3ff">conditions of use</tspan><tspan y="0">.</tspan></text>
      <text id="Items:" transform="translate(660 526)" font-size="14" font-family="Graphik-Regular, Graphik"><tspan x="0" y="0">Items:</tspan></text>
      <text id="_1" data-name="1" transform="translate(785 526)" font-size="14" font-family="Graphik-Regular, Graphik"><tspan x="0" y="0">1</tspan></text>
      <text id="Price:" transform="translate(660 550)" font-size="14" font-family="Graphik-Regular, Graphik"><tspan x="0" y="0">Price:</tspan></text>
      <text id="Delivery:" transform="translate(660 574)" font-size="14" font-family="Graphik-Regular, Graphik"><tspan x="0" y="0">Delivery:</tspan></text>
      <text id="Order_Total:" data-name="Order Total:" transform="translate(660 612)" fill="red" font-size="18" font-family="Graphik-Semibold, Graphik" font-weight="600"><tspan x="0" y="0">Order Total:</tspan></text>
      <text id="_2_790.00" data-name="2,790.00" transform="translate(795 550)" font-size="14" font-family="Graphik-Regular, Graphik"><tspan x="0" y="0">2,790.00</tspan></text>
      <text id="_0.00" data-name="0.00" transform="translate(795 574)" font-size="14" font-family="Graphik-Regular, Graphik"><tspan x="0" y="0">0.00</tspan></text>
      <text id="_2_790.00-2" data-name="2,790.00" transform="translate(795 612)" fill="red" font-size="18" font-family="Graphik-Semibold, Graphik" font-weight="600"><tspan x="0" y="0">2,790.00</tspan></text>
      <g id="rupee_icon" data-name="rupee icon" transform="translate(785.012 539.842)">
        <path id="Path_1160" data-name="Path 1160" d="M6.312,0a.292.292,0,0,1,.16.294c0,.2,0,.391,0,.586,0,.246-.081.329-.325.33H4.574a2.094,2.094,0,0,1,.157.258q.139.328.257.663c.025.07.051.1.13.1.334,0,.668,0,1,0a1.254,1.254,0,0,1,.158.01.2.2,0,0,1,.2.2c.009.258.012.516,0,.774,0,.156-.094.23-.252.231-.321,0-.641,0-.962,0-.217,0-.216,0-.266.213A2.732,2.732,0,0,1,3.423,5.57,4.06,4.06,0,0,1,2.8,5.8c-.212.061-.431.1-.658.143.021.025.042.053.065.078,1.106,1.2,2.142,2.46,3.177,3.722.145.177.132.293-.045.433H3.753a2.058,2.058,0,0,1-.164-.156c-.306-.361-.6-.729-.915-1.085C1.82,7.958.96,6.988.1,6.014A.36.36,0,0,1,0,5.819c-.01-.317-.01-.635,0-.953a.224.224,0,0,1,.217-.218,1.345,1.345,0,0,1,.139,0,8.794,8.794,0,0,0,1.433-.059,2.128,2.128,0,0,0,1.125-.5A1.3,1.3,0,0,0,3.3,3.445H.274c-.188,0-.275-.073-.28-.256-.008-.238-.007-.477,0-.715C0,2.318.077,2.251.232,2.235a1.344,1.344,0,0,1,.139,0H3.192a1.209,1.209,0,0,0-.494-.5,2.619,2.619,0,0,0-1.231-.29c-.386-.01-.773,0-1.16,0-.224,0-.315-.087-.317-.31,0-.275,0-.55,0-.824A.3.3,0,0,1,.144,0Z" transform="translate(0)"/>
      </g>
      <g id="rupee_icon-2" data-name="rupee icon" transform="translate(785.012 563.842)">
        <path id="Path_1160-2" data-name="Path 1160" d="M6.312,0a.292.292,0,0,1,.16.294c0,.2,0,.391,0,.586,0,.246-.081.329-.325.33H4.574a2.094,2.094,0,0,1,.157.258q.139.328.257.663c.025.07.051.1.13.1.334,0,.668,0,1,0a1.254,1.254,0,0,1,.158.01.2.2,0,0,1,.2.2c.009.258.012.516,0,.774,0,.156-.094.23-.252.231-.321,0-.641,0-.962,0-.217,0-.216,0-.266.213A2.732,2.732,0,0,1,3.423,5.57,4.06,4.06,0,0,1,2.8,5.8c-.212.061-.431.1-.658.143.021.025.042.053.065.078,1.106,1.2,2.142,2.46,3.177,3.722.145.177.132.293-.045.433H3.753a2.058,2.058,0,0,1-.164-.156c-.306-.361-.6-.729-.915-1.085C1.82,7.958.96,6.988.1,6.014A.36.36,0,0,1,0,5.819c-.01-.317-.01-.635,0-.953a.224.224,0,0,1,.217-.218,1.345,1.345,0,0,1,.139,0,8.794,8.794,0,0,0,1.433-.059,2.128,2.128,0,0,0,1.125-.5A1.3,1.3,0,0,0,3.3,3.445H.274c-.188,0-.275-.073-.28-.256-.008-.238-.007-.477,0-.715C0,2.318.077,2.251.232,2.235a1.344,1.344,0,0,1,.139,0H3.192a1.209,1.209,0,0,0-.494-.5,2.619,2.619,0,0,0-1.231-.29c-.386-.01-.773,0-1.16,0-.224,0-.315-.087-.317-.31,0-.275,0-.55,0-.824A.3.3,0,0,1,.144,0Z" transform="translate(0)"/>
      </g>
      <g id="rupee_icon-3" data-name="rupee icon" transform="translate(785.012 599)">
        <path id="Path_1160-3" data-name="Path 1160" d="M8.111,0a.375.375,0,0,1,.206.378c0,.251,0,.5,0,.753,0,.316-.1.423-.417.424-.62,0-1.24,0-1.86,0H5.878a2.69,2.69,0,0,1,.2.332q.178.421.331.852c.032.089.066.129.166.128.429-.005.858,0,1.286,0a1.611,1.611,0,0,1,.2.012.26.26,0,0,1,.253.256c.011.331.015.663,0,.994-.006.2-.121.3-.324.3-.412,0-.824,0-1.235,0-.279,0-.278,0-.342.274A3.51,3.51,0,0,1,4.4,7.155a5.215,5.215,0,0,1-.8.292c-.272.078-.554.122-.845.184.027.033.053.068.083.1,1.42,1.542,2.752,3.16,4.08,4.781.186.227.17.377-.058.557H4.824a2.644,2.644,0,0,1-.21-.2c-.393-.464-.775-.937-1.175-1.394-1.1-1.253-2.2-2.5-3.3-3.751A.463.463,0,0,1,0,7.475c-.013-.407-.012-.816,0-1.224a.287.287,0,0,1,.279-.28,1.728,1.728,0,0,1,.178,0A11.3,11.3,0,0,0,2.3,5.891a2.734,2.734,0,0,0,1.445-.64,1.676,1.676,0,0,0,.492-.826H.355c-.241,0-.353-.093-.36-.329-.01-.306-.009-.612,0-.918.008-.2.105-.286.3-.306A1.727,1.727,0,0,1,.48,2.865H4.1A1.552,1.552,0,0,0,3.47,2.22a3.364,3.364,0,0,0-1.582-.372c-.5-.013-.993,0-1.49-.006-.288,0-.4-.111-.407-.4,0-.353,0-.706,0-1.059A.39.39,0,0,1,.188,0Z" transform="translate(0)" fill="#ff0100"/>
      </g>
      <line id="Line_25" data-name="Line 25" x2="193" transform="translate(660.5 585.5)" fill="none" stroke="#7805cc" stroke-width="1"/>
    </g>
  </g>
</svg>
