<svg xmlns="http://www.w3.org/2000/svg" width="113" height="34" viewBox="0 0 113 34">
  <g id="CTA_PAY" data-name="CTA PAY" transform="translate(-461 -303)">
    <g id="Rectangle_52" data-name="Rectangle 52" transform="translate(461 303)" fill="#7147fd" stroke="#707070" stroke-width="1">
      <rect width="113" height="34" rx="17" stroke="none"/>
      <rect x="0.5" y="0.5" width="112" height="33" rx="16.5" fill="none"/>
    </g>
    <path id="Path_1199" data-name="Path 1199" d="M1.155,0H3.57V-3.9H4.935c2.445,0,4.02-1.08,4.02-3.345V-7.3c0-2.265-1.485-3.42-4.095-3.42H1.155ZM3.57-5.595V-8.88H4.8c1.155,0,1.815.45,1.815,1.59v.06c0,1.065-.63,1.635-1.815,1.635Zm8.7,5.76a2.667,2.667,0,0,0,2.37-1.11V0h2.115V-5.115c0-2.13-1.365-2.91-3.285-2.91S10.08-7.2,9.945-5.34H12a1.183,1.183,0,0,1,1.335-1.11c.99,0,1.275.51,1.275,1.44v.315h-.885c-2.4,0-4.08.69-4.08,2.52C9.645-.525,10.845.165,12.27.165Zm.645-1.515c-.8,0-1.14-.375-1.14-.945,0-.84.735-1.11,2-1.11h.84v.66C14.61-1.875,13.875-1.35,12.915-1.35ZM19.35,2.67h2.1L25.695-7.845H23.61l-1.755,4.71L19.95-7.845H17.61L20.73-.8Z" transform="translate(503.845 323.725)" fill="#fff"/>
  </g>
</svg>
