<svg xmlns="http://www.w3.org/2000/svg" width="113" height="34" viewBox="0 0 113 34">
  <g id="CTA_CANCEL" data-name="CTA CANCEL" transform="translate(-320 -303)">
    <g id="Rectangle_60" data-name="Rectangle 60" transform="translate(320 303)" fill="#fff" stroke="#707070" stroke-width="1">
      <rect width="113" height="34" rx="17" stroke="none"/>
      <rect x="0.5" y="0.5" width="112" height="33" rx="16.5" fill="none"/>
    </g>
    <path id="Path_1197" data-name="Path 1197" d="M5.835.135a4.116,4.116,0,0,0,4.485-3.69H9.1A2.963,2.963,0,0,1,5.865-.93c-2.31,0-3.69-1.65-3.69-4.38v-.12c0-2.7,1.485-4.425,3.7-4.425A2.7,2.7,0,0,1,8.925-7.38h1.29C9.99-9.7,8.1-10.89,5.865-10.89c-2.91,0-5.04,2.3-5.04,5.475v.12C.825-2,2.73.135,5.835.135Zm8.49,0A2.827,2.827,0,0,0,16.77-.99V0h1.245V-5.175c0-2.19-1.365-2.8-2.865-2.8s-2.94.66-3.105,2.445H13.29c.12-.96.72-1.41,1.8-1.41,1.2,0,1.68.525,1.68,1.77v.57H15.645c-2.01,0-3.93.615-3.93,2.43C11.715-.57,12.87.135,14.325.135Zm.12-.99c-1.1,0-1.485-.51-1.485-1.32,0-1.155,1.155-1.545,2.73-1.545h1.08v.975C16.77-1.53,15.765-.855,14.445-.855ZM20.46,0H21.7V-4.755A2.064,2.064,0,0,1,23.9-6.9c1.26,0,1.845.615,1.845,2V0h1.245V-4.815c0-2.28-1.14-3.165-2.76-3.165A2.7,2.7,0,0,0,21.7-6.6V-7.845H20.46ZM32.685.135A3.275,3.275,0,0,0,36.1-2.82H34.95A2.119,2.119,0,0,1,32.7-.9c-1.515,0-2.565-1.02-2.565-2.94v-.12c0-1.845,1.095-2.985,2.52-2.985a1.958,1.958,0,0,1,2.175,1.71h1.23A3.079,3.079,0,0,0,32.655-7.98a3.812,3.812,0,0,0-3.81,4.02v.12A3.73,3.73,0,0,0,32.685.135Zm8.505,0c1.77,0,3.075-.825,3.345-2.4H43.29C43.125-1.35,42.42-.9,41.205-.9c-1.6,0-2.46-.99-2.52-2.775H44.6V-4.08c0-2.8-1.71-3.9-3.525-3.9A3.692,3.692,0,0,0,37.4-3.96v.12A3.688,3.688,0,0,0,41.19.135ZM38.73-4.68a2.352,2.352,0,0,1,2.34-2.265c1.29,0,2.13.645,2.25,2.265ZM46.53,0h1.26V-11.6H46.53Z" transform="translate(352.175 325.596)" fill="#7147fd"/>
  </g>
</svg>
