<svg xmlns="http://www.w3.org/2000/svg" width="168.24" height="19.1" viewBox="0 0 168.24 19.1">
  <path id="Choose_your_bank" data-name="Choose your bank" d="M7.78.18c3.2,0,5.48-1.62,5.98-4.92H12.14c-.36,2.32-1.98,3.5-4.32,3.5-3.08,0-4.92-2.2-4.92-5.84v-.16c0-3.6,1.98-5.9,4.94-5.9,2.44,0,3.7,1.12,4.06,3.3h1.72c-.3-3.1-2.82-4.68-5.8-4.68-3.88,0-6.72,3.06-6.72,7.3v.16C1.1-2.66,3.64.18,7.78.18ZM16.28,0h1.66V-6.34A2.752,2.752,0,0,1,20.86-9.2c1.68,0,2.46.82,2.46,2.66V0h1.66V-6.42c0-3.04-1.52-4.22-3.68-4.22A3.593,3.593,0,0,0,17.94-8.8v-6.66H16.28Zm16.3.18a5.049,5.049,0,0,0,5.16-5.34v-.16a5.039,5.039,0,0,0-5.14-5.32A5.055,5.055,0,0,0,27.46-5.3v.16A5.057,5.057,0,0,0,32.58.18ZM32.6-1.2c-2.12,0-3.42-1.56-3.42-3.94V-5.3c0-2.4,1.32-3.96,3.42-3.96,2.08,0,3.42,1.56,3.42,3.98v.14C36.02-2.78,34.7-1.2,32.6-1.2ZM44.66.18a5.049,5.049,0,0,0,5.16-5.34v-.16a5.039,5.039,0,0,0-5.14-5.32A5.055,5.055,0,0,0,39.54-5.3v.16A5.057,5.057,0,0,0,44.66.18Zm.02-1.38c-2.12,0-3.42-1.56-3.42-3.94V-5.3c0-2.4,1.32-3.96,3.42-3.96,2.08,0,3.42,1.56,3.42,3.98v.14C48.1-2.78,46.78-1.2,44.68-1.2ZM55.64.18C58.18.18,59.48-1.1,59.48-3c0-2.22-1.52-2.7-3.68-3.1-1.92-.34-2.44-.72-2.44-1.66,0-.9.78-1.5,1.98-1.5,1.32,0,1.96.5,2.2,1.64h1.6c-.28-2.26-1.9-3.02-3.78-3.02-1.64,0-3.54,1-3.54,2.94,0,1.82.92,2.58,3.64,3.08,1.62.3,2.44.66,2.44,1.76,0,1.12-.7,1.66-2.28,1.66-1.68,0-2.34-.78-2.46-2.02H51.54C51.64-1.08,53.14.18,55.64.18Zm10.64,0c2.36,0,4.1-1.1,4.46-3.2H69.08C68.86-1.8,67.92-1.2,66.3-1.2c-2.14,0-3.28-1.32-3.36-3.7h7.88v-.54c0-3.74-2.28-5.2-4.7-5.2-2.88,0-4.9,2.2-4.9,5.36v.16C61.22-1.9,63.32.18,66.28.18ZM63-6.24c.28-1.86,1.42-3.02,3.12-3.02,1.72,0,2.84.86,3,3.02ZM79.6,3.64h1.68l5.78-14.1h-1.7l-2.9,7.5-3.2-7.5H77.48l4.1,9.38ZM93.28.18a5.049,5.049,0,0,0,5.16-5.34v-.16a5.039,5.039,0,0,0-5.14-5.32A5.055,5.055,0,0,0,88.16-5.3v.16A5.057,5.057,0,0,0,93.28.18ZM93.3-1.2c-2.12,0-3.42-1.56-3.42-3.94V-5.3c0-2.4,1.32-3.96,3.42-3.96,2.08,0,3.42,1.56,3.42,3.98v.14C96.72-2.78,95.4-1.2,93.3-1.2ZM104.56.18a3.571,3.571,0,0,0,3.32-1.84V0h1.66V-10.46h-1.66v6.34A2.752,2.752,0,0,1,105-1.26c-1.64,0-2.42-.82-2.42-2.66v-6.54h-1.66v6.62C100.92-.96,102.48.18,104.56.18ZM112.9,0h1.66V-5.74c0-2.58,1.34-3.24,3.44-3.34v-1.56a3.651,3.651,0,0,0-3.44,2.06v-1.88H112.9Zm18.02.18c2.88,0,4.76-2.2,4.76-5.4v-.16c0-3.26-2.02-5.26-4.76-5.26a4.3,4.3,0,0,0-3.54,1.94v-6.76h-1.66V0h1.66V-1.72A3.989,3.989,0,0,0,130.92.18Zm-.16-1.38c-2.04,0-3.44-1.26-3.44-3.94V-5.3c0-2.68,1.48-3.96,3.42-3.96,1.76,0,3.22,1.32,3.22,3.96v.16C133.96-2.6,132.84-1.2,130.76-1.2ZM140.88.18a3.769,3.769,0,0,0,3.26-1.5V0h1.66V-6.9c0-2.92-1.82-3.74-3.82-3.74-2.02,0-3.92.88-4.14,3.26h1.66c.16-1.28.96-1.88,2.4-1.88,1.6,0,2.24.7,2.24,2.36v.76h-1.5c-2.68,0-5.24.82-5.24,3.24C137.4-.76,138.94.18,140.88.18Zm.16-1.32c-1.46,0-1.98-.68-1.98-1.76,0-1.54,1.54-2.06,3.64-2.06h1.44v1.3C144.14-2.04,142.8-1.14,141.04-1.14ZM149.06,0h1.66V-6.34a2.752,2.752,0,0,1,2.92-2.86c1.68,0,2.46.82,2.46,2.66V0h1.66V-6.42c0-3.04-1.52-4.22-3.68-4.22a3.593,3.593,0,0,0-3.36,1.84v-1.66h-1.66Zm11.96,0h1.66V-5.42L167.32,0h2.02l-4.86-5.6,4.48-4.86h-1.94l-4.34,4.82v-9.82h-1.66Z" transform="translate(-1.1 15.46)"/>
</svg>
