<svg xmlns="http://www.w3.org/2000/svg" width="195.6" height="19.1" viewBox="0 0 195.6 19.1">
  <path id="Path_2629" data-name="Path 2629" d="M1.8,0h8.7V-1.42H3.54V-6.6H8.86V-8.02H3.54v-4.86h6.6V-14.3H1.8ZM11.98,0h1.78l2.88-4.22L19.46,0h1.96L17.6-5.5l3.46-4.96h-1.8l-2.54,3.8-2.56-3.8H12.22l3.5,5.08ZM24.9-5.84a1.276,1.276,0,0,0,1.28-1.28A1.276,1.276,0,0,0,24.9-8.4a1.276,1.276,0,0,0-1.28,1.28A1.276,1.276,0,0,0,24.9-5.84ZM24.9.1a1.276,1.276,0,0,0,1.28-1.28A1.276,1.276,0,0,0,24.9-2.46a1.276,1.276,0,0,0-1.28,1.28A1.276,1.276,0,0,0,24.9.1ZM34.8,0h1.66V-6.4a2.673,2.673,0,0,1,2.76-2.8c1.44,0,2.22.76,2.22,2.6V0H43.1V-6.4a2.673,2.673,0,0,1,2.76-2.8c1.44,0,2.22.76,2.22,2.6V0h1.66V-6.48c0-3.04-1.64-4.16-3.52-4.16a4.047,4.047,0,0,0-3.58,1.96,3.035,3.035,0,0,0-3.06-1.96,3.406,3.406,0,0,0-3.12,1.78v-1.6H34.8ZM57.34.18A5.049,5.049,0,0,0,62.5-5.16v-.16a5.039,5.039,0,0,0-5.14-5.32A5.055,5.055,0,0,0,52.22-5.3v.16A5.057,5.057,0,0,0,57.34.18Zm.02-1.38c-2.12,0-3.42-1.56-3.42-3.94V-5.3c0-2.4,1.32-3.96,3.42-3.96,2.08,0,3.42,1.56,3.42,3.98v.14C60.78-2.78,59.46-1.2,57.36-1.2ZM70.28.18c2.88,0,4.76-2.2,4.76-5.4v-.16c0-3.26-2.02-5.26-4.76-5.26A4.3,4.3,0,0,0,66.74-8.7v-6.76H65.08V0h1.66V-1.72A3.989,3.989,0,0,0,70.28.18ZM70.12-1.2c-2.04,0-3.44-1.26-3.44-3.94V-5.3c0-2.68,1.48-3.96,3.42-3.96,1.76,0,3.22,1.32,3.22,3.96v.16C73.32-2.6,72.2-1.2,70.12-1.2Zm8.34-11.44a1.11,1.11,0,0,0,1.1-1.1,1.11,1.11,0,0,0-1.1-1.1,1.11,1.11,0,0,0-1.1,1.1A1.11,1.11,0,0,0,78.46-12.64ZM77.66,0h1.66V-10.46H77.66Zm5.1,0h1.68V-15.46H82.76Zm9.36.18c2.36,0,4.1-1.1,4.46-3.2H94.92C94.7-1.8,93.76-1.2,92.14-1.2c-2.14,0-3.28-1.32-3.36-3.7h7.88v-.54c0-3.74-2.28-5.2-4.7-5.2-2.88,0-4.9,2.2-4.9,5.36v.16C87.06-1.9,89.16.18,92.12.18ZM88.84-6.24c.28-1.86,1.42-3.02,3.12-3.02,1.72,0,2.84.86,3,3.02ZM99.2,0h1.66V-6.34a2.752,2.752,0,0,1,2.92-2.86c1.68,0,2.46.82,2.46,2.66V0h1.66V-6.42c0-3.04-1.52-4.22-3.68-4.22a3.593,3.593,0,0,0-3.36,1.84v-1.66H99.2Zm16.3.18a5.049,5.049,0,0,0,5.16-5.34v-.16a5.039,5.039,0,0,0-5.14-5.32,5.055,5.055,0,0,0-5.14,5.34v.16A5.057,5.057,0,0,0,115.5.18Zm.02-1.38c-2.12,0-3.42-1.56-3.42-3.94V-5.3c0-2.4,1.32-3.96,3.42-3.96,2.08,0,3.42,1.56,3.42,3.98v.14C118.94-2.78,117.62-1.2,115.52-1.2Zm15.22,4.14c2.88,0,5.24-1.2,6.26-2.94h-1.54a6.553,6.553,0,0,1-4.72,1.62c-4.46,0-6.74-3.22-6.74-6.86a6.84,6.84,0,0,1,7-7.2c4.12,0,6.52,2.46,6.52,6.04,0,2.72-1.16,3.86-2.3,3.86-.76,0-1.1-.52-.96-1.58l.6-5.04H133.2l-.14,1.2a2.389,2.389,0,0,0-2.42-1.36c-2.18,0-3.94,1.96-3.94,4.64,0,2.16,1.28,3.48,3.22,3.48a3.57,3.57,0,0,0,2.98-1.86c.16,1.04.68,1.72,2.3,1.72,1.6,0,3.76-1.34,3.76-5.1,0-4.12-3.18-7.32-7.96-7.32a8.5,8.5,0,0,0-8.54,8.56A7.886,7.886,0,0,0,130.74,2.94Zm-.46-5.42c-1.08,0-1.88-.82-1.88-2.22,0-2.1,1.1-3.3,2.36-3.3,1.3,0,2.08.74,2.08,2.26C132.84-3.62,131.52-2.48,130.28-2.48Zm11.26,6.12h1.66V-1.72a3.965,3.965,0,0,0,3.54,1.9c2.88,0,4.76-2.2,4.76-5.4v-.16c0-3.26-2.02-5.26-4.76-5.26A4.3,4.3,0,0,0,143.2-8.7v-1.76h-1.66Zm5.04-4.84c-2.04,0-3.44-1.26-3.44-3.94V-5.3c0-2.68,1.48-3.96,3.42-3.96,1.76,0,3.22,1.32,3.22,3.96v.16C149.78-2.6,148.66-1.2,146.58-1.2ZM156.7.18a3.769,3.769,0,0,0,3.26-1.5V0h1.66V-6.9c0-2.92-1.82-3.74-3.82-3.74-2.02,0-3.92.88-4.14,3.26h1.66c.16-1.28.96-1.88,2.4-1.88,1.6,0,2.24.7,2.24,2.36v.76h-1.5c-2.68,0-5.24.82-5.24,3.24C153.22-.76,154.76.18,156.7.18Zm.16-1.32c-1.46,0-1.98-.68-1.98-1.76,0-1.54,1.54-2.06,3.64-2.06h1.44v1.3C159.96-2.04,158.62-1.14,156.86-1.14Zm8.66,4.78h1.68l5.78-14.1h-1.7l-2.9,7.5-3.2-7.5H163.4l4.1,9.38ZM178.54.14a3.956,3.956,0,0,0,1.42-.22v-1.4a3.417,3.417,0,0,1-1.28.22c-.84,0-1.3-.5-1.3-1.52V-9.06h2.44v-1.4h-2.44v-2.38h-1.66v2.38h-1.5v1.4h1.5v6.44A2.542,2.542,0,0,0,178.54.14ZM182.46,0h1.66V-6.4a2.673,2.673,0,0,1,2.76-2.8c1.44,0,2.22.76,2.22,2.6V0h1.66V-6.4a2.673,2.673,0,0,1,2.76-2.8c1.44,0,2.22.76,2.22,2.6V0h1.66V-6.48c0-3.04-1.64-4.16-3.52-4.16a4.047,4.047,0,0,0-3.58,1.96,3.035,3.035,0,0,0-3.06-1.96,3.406,3.406,0,0,0-3.12,1.78v-1.6h-1.66Z" transform="translate(-1.8 15.46)" opacity="0.242"/>
</svg>
