<svg xmlns="http://www.w3.org/2000/svg" width="47.214" height="17.244" viewBox="0 0 47.214 17.244">
  <path id="Path_2630" data-name="Path 2630" d="M4.914,0H6.786l4.446-12.87H9.756L5.922-1.512,2.088-12.87H.54ZM16.056.162c2.124,0,3.69-.99,4.014-2.88H18.576c-.2,1.1-1.044,1.638-2.5,1.638-1.926,0-2.952-1.188-3.024-3.33h7.092V-4.9c0-3.366-2.052-4.68-4.23-4.68-2.592,0-4.41,1.98-4.41,4.824v.144A4.425,4.425,0,0,0,16.056.162ZM13.1-5.616a2.822,2.822,0,0,1,2.808-2.718c1.548,0,2.556.774,2.7,2.718ZM22.428,0h1.494V-5.166c0-2.322,1.206-2.916,3.1-3.006v-1.4a3.286,3.286,0,0,0-3.1,1.854V-9.414H22.428Zm7.524-11.376a1,1,0,0,0,.99-.99,1,1,0,0,0-.99-.99,1,1,0,0,0-.99.99A1,1,0,0,0,29.952-11.376ZM29.232,0h1.494V-9.414H29.232ZM34.11,0H35.6V-8.154h2.3v-1.26H35.6v-1.692c0-.954.4-1.62,1.368-1.62a2.939,2.939,0,0,1,1.062.2v-1.26a3.025,3.025,0,0,0-1.116-.18c-1.872,0-2.808,1.116-2.808,3.024v1.53H32.76v1.26h1.35Zm6.93,3.276h1.512l5.2-12.69h-1.53l-2.61,6.75-2.88-6.75h-1.6l3.69,8.442Z" transform="translate(-0.54 13.968)" fill="#fff"/>
</svg>
