<svg xmlns="http://www.w3.org/2000/svg" width="9.426" height="14.767" viewBox="0 0 9.426 14.767">
  <path id="rupee_icon" data-name="rupee icon" d="M9.166,0A.423.423,0,0,1,9.4.427c0,.284,0,.567,0,.851,0,.357-.118.478-.472.479-.7,0-1.4,0-2.1,0H6.644a3.039,3.039,0,0,1,.228.375q.2.475.374.963c.036.1.074.146.188.145.485-.006.969,0,1.453,0a1.82,1.82,0,0,1,.229.014A.293.293,0,0,1,9.4,3.54c.012.374.017.749.006,1.124C9.4,4.89,9.271,5,9.042,5c-.465,0-.931,0-1.4,0-.315,0-.314,0-.387.309A3.966,3.966,0,0,1,4.974,8.085a5.892,5.892,0,0,1-.9.329c-.307.088-.626.138-.955.208.03.037.06.077.094.114,1.6,1.743,3.11,3.57,4.611,5.4.21.257.192.426-.065.629h-2.3a2.987,2.987,0,0,1-.238-.226c-.444-.524-.876-1.058-1.328-1.575C2.647,11.55,1.4,10.142.156,8.728a.523.523,0,0,1-.149-.282c-.015-.46-.014-.922,0-1.383A.325.325,0,0,1,.32,6.747a1.952,1.952,0,0,1,.2,0A12.763,12.763,0,0,0,2.6,6.657a3.089,3.089,0,0,0,1.632-.723A1.894,1.894,0,0,0,4.79,5H.4C.13,5,0,4.894,0,4.628c-.011-.346-.01-.692,0-1.037.009-.226.119-.323.344-.346a1.951,1.951,0,0,1,.2-.007h4.1a1.754,1.754,0,0,0-.717-.729,3.8,3.8,0,0,0-1.787-.421C1.574,2.072,1.013,2.082.452,2.08c-.326,0-.457-.126-.46-.451,0-.4,0-.8,0-1.2A.441.441,0,0,1,.214,0Z" transform="translate(0.012)" fill="#fff"/>
</svg>
