<svg xmlns="http://www.w3.org/2000/svg" width="113" height="34" viewBox="0 0 113 34">
  <g id="CTA_CLOSE" data-name="CTA CLOSE" transform="translate(-461 -303)">
    <g id="Rectangle_52" data-name="Rectangle 52" transform="translate(461 303)" fill="#7147fd" stroke="#707070" stroke-width="1">
      <rect width="113" height="34" rx="17" stroke="none"/>
      <rect x="0.5" y="0.5" width="112" height="33" rx="16.5" fill="none"/>
    </g>
    <path id="Path_2638" data-name="Path 2638" d="M5.985.165c2.64,0,4.545-1.365,4.815-4.02H8.415A2.249,2.249,0,0,1,5.955-1.8c-1.77,0-2.79-1.29-2.79-3.51v-.12c0-2.22,1.08-3.54,2.775-3.54A2.046,2.046,0,0,1,8.19-6.99h2.49c-.255-2.64-2.175-3.9-4.755-3.9A5.2,5.2,0,0,0,.6-5.415v.12C.6-2,2.475.165,5.985.165ZM12.375,0h6.8V-1.905H14.805v-8.82h-2.43Zm12.96.165a5.271,5.271,0,0,0,5.535-5.52v-.12a5.213,5.213,0,0,0-5.52-5.4,5.3,5.3,0,0,0-5.52,5.46v.12A5.224,5.224,0,0,0,25.335.165ZM25.38-1.77c-1.755,0-3.015-1.35-3.015-3.54v-.12c0-2.16,1.125-3.525,2.985-3.525,1.875,0,2.985,1.425,2.985,3.51v.12C28.335-3.165,27.195-1.77,25.38-1.77ZM36.225.165c2.535,0,4.1-1.515,4.1-3.42,0-2.22-1.335-2.925-3.93-3.255-1.65-.24-1.995-.6-1.995-1.365,0-.72.54-1.215,1.6-1.215a1.554,1.554,0,0,1,1.785,1.425H40.02c-.2-2.13-1.6-3.21-4.02-3.21-2.37,0-3.9,1.365-3.9,3.195,0,2.07,1.125,2.9,3.87,3.255,1.575.24,2.025.54,2.025,1.395s-.7,1.425-1.77,1.425c-1.59,0-1.995-.795-2.1-1.755H31.8C31.935-1.215,33.285.165,36.225.165ZM42.075,0h7.23V-1.89H44.49V-4.56h3.66V-6.33H44.49V-8.835h4.575v-1.89h-6.99Z" transform="translate(492.4 324.89)" fill="#fff"/>
  </g>
</svg>
