<svg xmlns="http://www.w3.org/2000/svg" width="48.96" height="13.068" viewBox="0 0 48.96 13.068">
  <path id="Name" d="M1.386,0H3.978V-9.162L9.342,0h2.916V-12.87H9.666v8.478L4.77-12.87H1.386ZM17.262.2a3.2,3.2,0,0,0,2.844-1.332V0h2.538V-6.138c0-2.556-1.638-3.492-3.942-3.492s-4.068.99-4.23,3.222h2.466a1.419,1.419,0,0,1,1.6-1.332c1.188,0,1.53.612,1.53,1.728v.378H19.008c-2.88,0-4.9.828-4.9,3.024C14.112-.63,15.552.2,17.262.2Zm.774-1.818c-.954,0-1.368-.45-1.368-1.134,0-1.008.882-1.332,2.394-1.332H20.07v.792C20.07-2.25,19.188-1.62,18.036-1.62ZM24.876,0h2.61V-5.562A1.75,1.75,0,0,1,29.3-7.488c.918,0,1.476.54,1.476,1.746V0h2.592V-5.562A1.75,1.75,0,0,1,35.19-7.488c.936,0,1.476.54,1.476,1.746V0h2.592V-6.03c0-2.5-1.35-3.6-3.1-3.6a3.74,3.74,0,0,0-3.168,1.638A2.6,2.6,0,0,0,30.366-9.63a3.2,3.2,0,0,0-2.88,1.656v-1.44h-2.61ZM45.828.2c2.574,0,4.194-1.134,4.5-3.168H47.862c-.162.792-.756,1.314-1.962,1.314a2.256,2.256,0,0,1-2.34-2.466h6.786v-.72c0-3.366-2.16-4.788-4.59-4.788a4.673,4.673,0,0,0-4.842,4.9v.144A4.568,4.568,0,0,0,45.828.2ZM43.6-5.724a2.16,2.16,0,0,1,2.16-2.106c1.242,0,1.962.684,2.052,2.106Z" transform="translate(-1.386 12.87)" fill="#fff"/>
</svg>
