<svg xmlns="http://www.w3.org/2000/svg" width="76.896" height="14.076" viewBox="0 0 76.896 14.076">
  <path id="John_Doe" data-name="John Doe" d="M2.484.162A3.3,3.3,0,0,0,6.048-3.492V-12.87H4.482v9.306c0,1.728-.81,2.448-2.088,2.448a3.964,3.964,0,0,1-1.71-.36v1.3A3.644,3.644,0,0,0,2.484.162Zm10.494,0a4.544,4.544,0,0,0,4.644-4.806v-.144A4.535,4.535,0,0,0,13-9.576,4.55,4.55,0,0,0,8.37-4.77v.144A4.551,4.551,0,0,0,12.978.162ZM13-1.08c-1.908,0-3.078-1.4-3.078-3.546V-4.77c0-2.16,1.188-3.564,3.078-3.564,1.872,0,3.078,1.4,3.078,3.582v.126C16.074-2.5,14.886-1.08,13-1.08ZM19.944,0h1.494V-5.706A2.477,2.477,0,0,1,24.066-8.28c1.512,0,2.214.738,2.214,2.394V0h1.494V-5.778c0-2.736-1.368-3.8-3.312-3.8A3.234,3.234,0,0,0,21.438-7.92v-5.994H19.944ZM30.708,0H32.2V-5.706A2.477,2.477,0,0,1,34.83-8.28c1.512,0,2.214.738,2.214,2.394V0h1.494V-5.778c0-2.736-1.368-3.8-3.312-3.8A3.234,3.234,0,0,0,32.2-7.92V-9.414H30.708ZM46.35,0h3.366c4.5,0,6.552-2.826,6.552-6.39v-.162c0-3.582-2.088-6.318-6.516-6.318h-3.4Zm1.566-1.278V-11.61h1.746c3.546,0,4.986,2.088,4.986,5.058v.144c0,3.15-1.656,5.13-4.968,5.13ZM62.676.162A4.544,4.544,0,0,0,67.32-4.644v-.144a4.535,4.535,0,0,0-4.626-4.788A4.55,4.55,0,0,0,58.068-4.77v.144A4.551,4.551,0,0,0,62.676.162Zm.018-1.242c-1.908,0-3.078-1.4-3.078-3.546V-4.77c0-2.16,1.188-3.564,3.078-3.564,1.872,0,3.078,1.4,3.078,3.582v.126C65.772-2.5,64.584-1.08,62.694-1.08ZM73.494.162c2.124,0,3.69-.99,4.014-2.88H76.014c-.2,1.1-1.044,1.638-2.5,1.638-1.926,0-2.952-1.188-3.024-3.33H77.58V-4.9c0-3.366-2.052-4.68-4.23-4.68-2.592,0-4.41,1.98-4.41,4.824v.144A4.425,4.425,0,0,0,73.494.162ZM70.542-5.616A2.822,2.822,0,0,1,73.35-8.334c1.548,0,2.556.774,2.7,2.718Z" transform="translate(-0.684 13.914)" fill="#fff"/>
</svg>
