<svg xmlns="http://www.w3.org/2000/svg" width="70.758" height="13.878" viewBox="0 0 70.758 13.878">
  <path id="Address" d="M.378,0H3.114L4-2.862H8.658L9.54,0h3.042L8.406-12.87h-3.8ZM6.336-10.494,8.028-4.932h-3.4ZM17.424.2a3.426,3.426,0,0,0,3.024-1.764V0H23.04V-13.68H20.448v5.67a3.134,3.134,0,0,0-2.97-1.62c-2.358,0-4.14,1.818-4.14,4.914v.144C13.338-1.44,15.138.2,17.424.2ZM18.2-1.836c-1.3,0-2.2-.918-2.2-2.79V-4.77c0-1.872.81-2.862,2.268-2.862,1.422,0,2.25.954,2.25,2.826v.144C20.52-2.754,19.566-1.836,18.2-1.836ZM28.89.2a3.426,3.426,0,0,0,3.024-1.764V0h2.592V-13.68H31.914v5.67a3.134,3.134,0,0,0-2.97-1.62c-2.358,0-4.14,1.818-4.14,4.914v.144C24.8-1.44,26.6.2,28.89.2Zm.774-2.034c-1.3,0-2.2-.918-2.2-2.79V-4.77c0-1.872.81-2.862,2.268-2.862,1.422,0,2.25.954,2.25,2.826v.144C31.986-2.754,31.032-1.836,29.664-1.836ZM36.828,0h2.61V-4.716c0-1.8,1.116-2.43,3.042-2.412v-2.43a3.091,3.091,0,0,0-3.042,1.944v-1.8h-2.61ZM48.366.2c2.574,0,4.194-1.134,4.5-3.168H50.4c-.162.792-.756,1.314-1.962,1.314A2.256,2.256,0,0,1,46.1-4.122h6.786v-.72c0-3.366-2.16-4.788-4.59-4.788a4.673,4.673,0,0,0-4.842,4.9v.144A4.568,4.568,0,0,0,48.366.2ZM46.134-5.724a2.16,2.16,0,0,1,2.16-2.106c1.242,0,1.962.684,2.052,2.106ZM58.1.2c2.484,0,3.96-1.062,3.96-3.1,0-2.016-1.3-2.61-3.654-2.952-1.368-.2-1.818-.432-1.818-1.026,0-.576.486-.972,1.332-.972A1.274,1.274,0,0,1,59.4-6.714h2.394c-.234-2.16-1.8-2.916-3.888-2.916-1.926,0-3.726.972-3.726,2.934,0,1.836.972,2.556,3.474,2.934,1.35.2,1.908.468,1.908,1.116S59.094-1.62,58.086-1.62c-1.134,0-1.548-.486-1.656-1.332H54C54.09-.918,55.566.2,58.1.2Zm9.072,0c2.484,0,3.96-1.062,3.96-3.1,0-2.016-1.3-2.61-3.654-2.952-1.368-.2-1.818-.432-1.818-1.026,0-.576.486-.972,1.332-.972a1.274,1.274,0,0,1,1.476,1.134h2.394c-.234-2.16-1.8-2.916-3.888-2.916-1.926,0-3.726.972-3.726,2.934,0,1.836.972,2.556,3.474,2.934,1.35.2,1.908.468,1.908,1.116S68.166-1.62,67.158-1.62c-1.134,0-1.548-.486-1.656-1.332h-2.43C63.162-.918,64.638.2,67.176.2Z" transform="translate(-0.378 13.68)" fill="#fff"/>
</svg>
