<svg xmlns="http://www.w3.org/2000/svg" width="274.158" height="86.076" viewBox="0 0 274.158 86.076">
  <path id="Flat" d="M1.62,0H3.186V-5.76H7.83V-7.038H3.186v-4.554H9.144V-12.87H1.62Zm9.756,0h1.512V-13.914H11.376Zm6.93.162a3.392,3.392,0,0,0,2.934-1.35V0h1.494V-6.21c0-2.628-1.638-3.366-3.438-3.366-1.818,0-3.528.792-3.726,2.934h1.494c.144-1.152.864-1.692,2.16-1.692,1.44,0,2.016.63,2.016,2.124v.684H19.89c-2.412,0-4.716.738-4.716,2.916C15.174-.684,16.56.162,18.306.162Zm.144-1.188c-1.314,0-1.782-.612-1.782-1.584,0-1.386,1.386-1.854,3.276-1.854h1.3v1.17C21.24-1.836,20.034-1.026,18.45-1.026ZM28.53.126a3.561,3.561,0,0,0,1.278-.2v-1.26a3.075,3.075,0,0,1-1.152.2c-.756,0-1.17-.45-1.17-1.368V-8.154h2.2v-1.26h-2.2v-2.142H25.992v2.142h-1.35v1.26h1.35v5.8A2.288,2.288,0,0,0,28.53.126ZM36.936,0H38.43V-11.034L44.928,0h1.8V-12.87H45.234V-2.232L38.97-12.87H36.936Zm16.83.162A4.544,4.544,0,0,0,58.41-4.644v-.144a4.535,4.535,0,0,0-4.626-4.788A4.55,4.55,0,0,0,49.158-4.77v.144A4.551,4.551,0,0,0,53.766.162Zm.018-1.242c-1.908,0-3.078-1.4-3.078-3.546V-4.77c0-2.16,1.188-3.564,3.078-3.564,1.872,0,3.078,1.4,3.078,3.582v.126C56.862-2.5,55.674-1.08,53.784-1.08ZM61.308.09A1.148,1.148,0,0,0,62.46-1.062a1.148,1.148,0,0,0-1.152-1.152,1.148,1.148,0,0,0-1.152,1.152A1.148,1.148,0,0,0,61.308.09ZM75.762,0h1.53V-2.7h1.782V-3.978H77.292V-12.87H75.2L69.318-3.2v.5h6.444ZM71.3-3.978l4.464-7.7v7.7ZM83.016,0h1.566V-12.87H83.124l-2.988,2.16v1.458l2.88-2.07Zm9.9.162C96.084.162,97.9-2.358,97.9-6.1v-.72c0-3.672-1.854-6.21-5.022-6.21-3.15,0-5.076,2.448-5.076,6.246v.72C87.8-2.322,89.838.162,92.916.162Zm0-1.3c-2.142,0-3.51-1.692-3.51-4.95V-6.8c0-3.168,1.3-4.968,3.474-4.968s3.438,1.944,3.438,4.932v.72C96.318-2.862,95.166-1.134,92.916-1.134ZM99.7,2.214l2.214-3.762-1.458-.684L98.73,1.71ZM108.576,0h1.476l1.242-3.708h5.31L117.864,0h1.548l-4.356-12.87H113Zm5.382-11.574L116.19-4.95h-4.464ZM123.93.162a3.392,3.392,0,0,0,2.934-1.35V0h1.494V-6.21c0-2.628-1.638-3.366-3.438-3.366-1.818,0-3.528.792-3.726,2.934h1.494c.144-1.152.864-1.692,2.16-1.692,1.44,0,2.016.63,2.016,2.124v.684h-1.35c-2.412,0-4.716.738-4.716,2.916C120.8-.684,122.184.162,123.93.162Zm.144-1.188c-1.314,0-1.782-.612-1.782-1.584,0-1.386,1.386-1.854,3.276-1.854h1.3v1.17C126.864-1.836,125.658-1.026,124.074-1.026ZM131.292,0h1.494V-5.76a2.4,2.4,0,0,1,2.484-2.52c1.3,0,2,.684,2,2.34V0h1.494V-5.76a2.4,2.4,0,0,1,2.484-2.52c1.3,0,2,.684,2,2.34V0h1.494V-5.832c0-2.736-1.476-3.744-3.168-3.744a3.643,3.643,0,0,0-3.222,1.764,2.731,2.731,0,0,0-2.754-1.764,3.065,3.065,0,0,0-2.808,1.6v-1.44h-1.494Zm16.38,0h1.494V-5.166c0-2.322,1.206-2.916,3.1-3.006v-1.4a3.286,3.286,0,0,0-3.1,1.854V-9.414h-1.494Zm9.036.162a3.392,3.392,0,0,0,2.934-1.35V0h1.494V-6.21c0-2.628-1.638-3.366-3.438-3.366-1.818,0-3.528.792-3.726,2.934h1.494c.144-1.152.864-1.692,2.16-1.692,1.44,0,2.016.63,2.016,2.124v.684h-1.35c-2.412,0-4.716.738-4.716,2.916C153.576-.684,154.962.162,156.708.162Zm.144-1.188c-1.314,0-1.782-.612-1.782-1.584,0-1.386,1.386-1.854,3.276-1.854h1.3v1.17C159.642-1.836,158.436-1.026,156.852-1.026Zm7.218,4.3h1.494V-1.548A3.568,3.568,0,0,0,168.75.162c2.592,0,4.284-1.98,4.284-4.86v-.144c0-2.934-1.818-4.734-4.284-4.734a3.872,3.872,0,0,0-3.186,1.746V-9.414H164.07Zm4.536-4.356c-1.836,0-3.1-1.134-3.1-3.546V-4.77c0-2.412,1.332-3.564,3.078-3.564,1.584,0,2.9,1.188,2.9,3.564v.144C171.486-2.34,170.478-1.08,168.606-1.08ZM177.714.162a3.392,3.392,0,0,0,2.934-1.35V0h1.494V-6.21c0-2.628-1.638-3.366-3.438-3.366-1.818,0-3.528.792-3.726,2.934h1.494c.144-1.152.864-1.692,2.16-1.692,1.44,0,2.016.63,2.016,2.124v.684H179.3c-2.412,0-4.716.738-4.716,2.916C174.582-.684,175.968.162,177.714.162Zm.144-1.188c-1.314,0-1.782-.612-1.782-1.584,0-1.386,1.386-1.854,3.276-1.854h1.3v1.17C180.648-1.836,179.442-1.026,177.858-1.026ZM185.112,0h1.512V-13.914h-1.512Zm5.328-11.376a1,1,0,0,0,.99-.99,1,1,0,0,0-.99-.99,1,1,0,0,0-.99.99A1,1,0,0,0,190.44-11.376ZM189.72,0h1.494V-9.414H189.72Zm14.814.162c2.88,0,4.932-1.458,5.382-4.428h-1.458a3.556,3.556,0,0,1-3.888,3.15c-2.772,0-4.428-1.98-4.428-5.256v-.144c0-3.24,1.782-5.31,4.446-5.31,2.2,0,3.33,1.008,3.654,2.97h1.548c-.27-2.79-2.538-4.212-5.22-4.212-3.492,0-6.048,2.754-6.048,6.57v.144C198.522-2.394,200.808.162,204.534.162ZM212.292,0h1.566V-5.724h6.768V0h1.566V-12.87h-1.566v5.832h-6.768V-12.87h-1.566Zm17.3.162c2.556,0,4.446-1.638,4.446-3.8,0-2.43-1.512-3.294-4.374-3.744-2.628-.4-3.1-1.044-3.1-2.3,0-1.206.918-2.088,2.682-2.088,1.782,0,2.718.666,3.024,2.286h1.4c-.252-2.286-1.854-3.546-4.428-3.546-2.43,0-4.14,1.512-4.14,3.492,0,2.286,1.6,3.132,4.3,3.546,2.448.4,3.114,1.008,3.114,2.466S231.246-1.1,229.59-1.1c-2.592,0-3.2-1.3-3.4-2.826h-1.512C224.91-1.728,226.152.162,229.59.162Zm6.588,2.052,2.214-3.762-1.458-.684L235.206,1.71ZM1.62,24H3.06V13.164L7.47,24h.486l4.266-10.836V24h1.566V11.13h-2.16L7.776,21.156,3.8,11.13H1.62Zm18.486.162a3.214,3.214,0,0,0,2.988-1.656V24h1.494V14.586H23.094v5.706A2.477,2.477,0,0,1,20.5,22.866c-1.476,0-2.178-.738-2.178-2.394V14.586H16.83v5.958C16.83,23.136,18.234,24.162,20.106,24.162ZM27.612,24h1.494V18.294a2.477,2.477,0,0,1,2.628-2.574c1.512,0,2.214.738,2.214,2.394V24h1.494V18.222c0-2.736-1.368-3.8-3.312-3.8a3.234,3.234,0,0,0-3.024,1.656V14.586H27.612Zm11.52-11.376a.99.99,0,1,0-.99-.99A1,1,0,0,0,39.132,12.624ZM38.412,24h1.494V14.586H38.412Zm8.46.162a3.93,3.93,0,0,0,4.1-3.546H49.59a2.543,2.543,0,0,1-2.7,2.3c-1.818,0-3.078-1.224-3.078-3.528v-.144c0-2.214,1.314-3.582,3.024-3.582a2.35,2.35,0,0,1,2.61,2.052h1.476c-.288-2.394-2.124-3.294-4.086-3.294a4.575,4.575,0,0,0-4.572,4.824v.144A4.476,4.476,0,0,0,46.872,24.162Zm7.11-11.538a.99.99,0,1,0-.99-.99A1,1,0,0,0,53.982,12.624ZM53.262,24h1.494V14.586H53.262Zm4.554,3.276H59.31V22.452a3.568,3.568,0,0,0,3.186,1.71c2.592,0,4.284-1.98,4.284-4.86v-.144c0-2.934-1.818-4.734-4.284-4.734A3.872,3.872,0,0,0,59.31,16.17V14.586H57.816Zm4.536-4.356c-1.836,0-3.1-1.134-3.1-3.546V19.23c0-2.412,1.332-3.564,3.078-3.564,1.584,0,2.9,1.188,2.9,3.564v.144C65.232,21.66,64.224,22.92,62.352,22.92Zm9.108,1.242a3.392,3.392,0,0,0,2.934-1.35V24h1.494V17.79c0-2.628-1.638-3.366-3.438-3.366-1.818,0-3.528.792-3.726,2.934h1.494c.144-1.152.864-1.692,2.16-1.692,1.44,0,2.016.63,2.016,2.124v.684h-1.35c-2.412,0-4.716.738-4.716,2.916C68.328,23.316,69.714,24.162,71.46,24.162Zm.144-1.188c-1.314,0-1.782-.612-1.782-1.584,0-1.386,1.386-1.854,3.276-1.854h1.3v1.17C74.394,22.164,73.188,22.974,71.6,22.974ZM78.858,24H80.37V10.086H78.858Zm9.45,0H89.8V12.966L96.3,24h1.8V11.13H96.606V21.768L90.342,11.13H88.308Zm16.83.162a4.544,4.544,0,0,0,4.644-4.806v-.144a4.629,4.629,0,1,0-9.252.018v.144A4.551,4.551,0,0,0,105.138,24.162Zm.018-1.242c-1.908,0-3.078-1.4-3.078-3.546V19.23c0-2.16,1.188-3.564,3.078-3.564,1.872,0,3.078,1.4,3.078,3.582v.126C108.234,21.5,107.046,22.92,105.156,22.92Zm7.524,1.17a1.152,1.152,0,1,0-1.152-1.152A1.148,1.148,0,0,0,112.68,24.09Zm7.65-.09h8.622V22.722h-6.21l3.546-3.456c1.584-1.548,2.592-3.1,2.592-4.68,0-2.214-1.512-3.618-3.888-3.618-2.448,0-3.978,1.6-4.176,4.122h1.458c.252-2.016,1.224-2.862,2.718-2.862a2.111,2.111,0,0,1,2.3,2.3,5.517,5.517,0,0,1-1.854,3.726L120.33,23.64Zm13.1,0H135V11.13h-1.458l-2.988,2.16v1.458l2.88-2.07Zm9.9.162c3.168,0,4.986-2.52,4.986-6.264v-.72c0-3.672-1.854-6.21-5.022-6.21-3.15,0-5.076,2.448-5.076,6.246v.72C138.222,21.678,140.256,24.162,143.334,24.162Zm0-1.3c-2.142,0-3.51-1.692-3.51-4.95V17.2c0-3.168,1.3-4.968,3.474-4.968s3.438,1.944,3.438,4.932v.72C146.736,21.138,145.584,22.866,143.334,22.866Zm6.786,3.348,2.214-3.762-1.458-.684-1.728,3.942ZM159.966,24h4.41c2.574,0,4.23-1.17,4.23-3.6v-.072c0-1.674-.7-2.628-2.574-3.078a2.633,2.633,0,0,0,1.944-2.718V14.46c0-2.538-1.746-3.33-4.14-3.33h-3.87Zm1.53-7.254V12.354h2.3c1.8,0,2.646.594,2.646,2.052v.072c0,1.584-.72,2.268-2.61,2.268Zm0,6.03V17.97h2.628c2.07,0,2.952.756,2.952,2.34v.072c0,1.566-.864,2.394-2.736,2.394ZM171.054,24h1.494V18.834c0-2.322,1.206-2.916,3.1-3.006v-1.4a3.286,3.286,0,0,0-3.1,1.854V14.586h-1.494Zm7.524-11.376a.99.99,0,1,0-.99-.99A1,1,0,0,0,178.578,12.624ZM177.858,24h1.494V14.586h-1.494Zm8.316,3.438c2.628,0,4.482-1.332,4.5-4.068V14.586H189.18V16.1a3.373,3.373,0,0,0-3.078-1.674,4.455,4.455,0,0,0-4.392,4.68v.126a4.239,4.239,0,0,0,4.284,4.464,3.9,3.9,0,0,0,3.186-1.782V23.28c0,2.016-1.17,2.9-3.024,2.9-1.6,0-2.5-.558-2.718-1.638h-1.53C182.16,26.124,183.384,27.438,186.174,27.438Zm-.018-4.986a2.97,2.97,0,0,1-2.9-3.276v-.144c0-1.98,1.116-3.366,2.988-3.366,1.836,0,2.988,1.224,2.988,3.33v.126A3.03,3.03,0,0,1,186.156,22.452Zm9.9,1.71a3.392,3.392,0,0,0,2.934-1.35V24h1.494V17.79c0-2.628-1.638-3.366-3.438-3.366-1.818,0-3.528.792-3.726,2.934h1.494c.144-1.152.864-1.692,2.16-1.692,1.44,0,2.016.63,2.016,2.124v.684h-1.35c-2.412,0-4.716.738-4.716,2.916C192.924,23.316,194.31,24.162,196.056,24.162Zm.144-1.188c-1.314,0-1.782-.612-1.782-1.584,0-1.386,1.386-1.854,3.276-1.854h1.3v1.17C198.99,22.164,197.784,22.974,196.2,22.974Zm10.764,1.188a3.968,3.968,0,0,0,3.222-1.782V24h1.494V10.086h-1.494V16.1a3.373,3.373,0,0,0-3.078-1.674c-2.592,0-4.392,2.034-4.392,4.914v.144C202.716,22.416,204.5,24.162,206.964,24.162Zm.162-1.242c-1.584,0-2.862-1.134-2.862-3.51v-.144c0-2.286,1.116-3.6,2.988-3.6,1.836,0,2.988,1.134,2.988,3.546v.144C210.24,21.768,208.872,22.92,207.126,22.92Zm11.43,1.242c2.124,0,3.69-.99,4.014-2.88h-1.494c-.2,1.1-1.044,1.638-2.5,1.638-1.926,0-2.952-1.188-3.024-3.33h7.092V19.1c0-3.366-2.052-4.68-4.23-4.68-2.592,0-4.41,1.98-4.41,4.824v.144A4.425,4.425,0,0,0,218.556,24.162ZM215.6,18.384a2.822,2.822,0,0,1,2.808-2.718c1.548,0,2.556.774,2.7,2.718ZM229.806,24h1.566V18.4h1.98l3.834,5.6h1.746l-3.942-5.706c1.764-.342,3.186-1.386,3.186-3.51v-.072c0-2.574-2.034-3.582-4.5-3.582h-3.87Zm1.566-6.84V12.39h2.412c1.746,0,2.826.576,2.826,2.322v.072c0,1.584-.99,2.376-2.826,2.376Zm13.266,7a4.544,4.544,0,0,0,4.644-4.806v-.144a4.629,4.629,0,1,0-9.252.018v.144A4.551,4.551,0,0,0,244.638,24.162Zm.018-1.242c-1.908,0-3.078-1.4-3.078-3.546V19.23c0-2.16,1.188-3.564,3.078-3.564,1.872,0,3.078,1.4,3.078,3.582v.126C247.734,21.5,246.546,22.92,244.656,22.92Zm9.306,1.242a3.392,3.392,0,0,0,2.934-1.35V24h1.494V17.79c0-2.628-1.638-3.366-3.438-3.366-1.818,0-3.528.792-3.726,2.934h1.494c.144-1.152.864-1.692,2.16-1.692,1.44,0,2.016.63,2.016,2.124v.684h-1.35c-2.412,0-4.716.738-4.716,2.916C250.83,23.316,252.216,24.162,253.962,24.162Zm.144-1.188c-1.314,0-1.782-.612-1.782-1.584,0-1.386,1.386-1.854,3.276-1.854h1.3v1.17C256.9,22.164,255.69,22.974,254.106,22.974Zm10.764,1.188a3.968,3.968,0,0,0,3.222-1.782V24h1.494V10.086h-1.494V16.1a3.373,3.373,0,0,0-3.078-1.674c-2.592,0-4.392,2.034-4.392,4.914v.144C260.622,22.416,262.4,24.162,264.87,24.162Zm.162-1.242c-1.584,0-2.862-1.134-2.862-3.51v-.144c0-2.286,1.116-3.6,2.988-3.6,1.836,0,2.988,1.134,2.988,3.546v.144C268.146,21.768,266.778,22.92,265.032,22.92Zm7.686,3.294,2.214-3.762-1.458-.684-1.728,3.942ZM1.62,48H6.03c2.574,0,4.23-1.17,4.23-3.6v-.072c0-1.674-.7-2.628-2.574-3.078A2.633,2.633,0,0,0,9.63,38.532V38.46c0-2.538-1.746-3.33-4.14-3.33H1.62Zm1.53-7.254V36.354h2.3c1.8,0,2.646.594,2.646,2.052v.072c0,1.584-.72,2.268-2.61,2.268Zm0,6.03V41.97H5.778c2.07,0,2.952.756,2.952,2.34v.072c0,1.566-.864,2.394-2.736,2.394Zm13.41,1.386c2.124,0,3.69-.99,4.014-2.88H19.08c-.2,1.1-1.044,1.638-2.5,1.638-1.926,0-2.952-1.188-3.024-3.33h7.092V43.1c0-3.366-2.052-4.68-4.23-4.68-2.592,0-4.41,1.98-4.41,4.824v.144A4.425,4.425,0,0,0,16.56,48.162Zm-2.952-5.778a2.822,2.822,0,0,1,2.808-2.718c1.548,0,2.556.774,2.7,2.718ZM22.932,48h1.494V42.294a2.477,2.477,0,0,1,2.628-2.574c1.512,0,2.214.738,2.214,2.394V48h1.494V42.222c0-2.736-1.368-3.8-3.312-3.8a3.234,3.234,0,0,0-3.024,1.656V38.586H22.932Zm14.526,3.438c2.628,0,4.482-1.332,4.5-4.068V38.586H40.464V40.1a3.373,3.373,0,0,0-3.078-1.674,4.455,4.455,0,0,0-4.392,4.68v.126a4.239,4.239,0,0,0,4.284,4.464,3.9,3.9,0,0,0,3.186-1.782V47.28c0,2.016-1.17,2.9-3.024,2.9-1.6,0-2.5-.558-2.718-1.638h-1.53C33.444,50.124,34.668,51.438,37.458,51.438Zm-.018-4.986a2.97,2.97,0,0,1-2.9-3.276v-.144c0-1.98,1.116-3.366,2.988-3.366,1.836,0,2.988,1.224,2.988,3.33v.126A3.03,3.03,0,0,1,37.44,46.452Zm9.9,1.71a3.392,3.392,0,0,0,2.934-1.35V48h1.494V41.79c0-2.628-1.638-3.366-3.438-3.366-1.818,0-3.528.792-3.726,2.934H46.1c.144-1.152.864-1.692,2.16-1.692,1.44,0,2.016.63,2.016,2.124v.684h-1.35c-2.412,0-4.716.738-4.716,2.916C44.208,47.316,45.594,48.162,47.34,48.162Zm.144-1.188c-1.314,0-1.782-.612-1.782-1.584,0-1.386,1.386-1.854,3.276-1.854h1.3v1.17C50.274,46.164,49.068,46.974,47.484,46.974ZM54.738,48H56.25V34.086H54.738Zm7.758.162a3.214,3.214,0,0,0,2.988-1.656V48h1.494V38.586H65.484v5.706a2.477,2.477,0,0,1-2.592,2.574c-1.476,0-2.178-.738-2.178-2.394V38.586H59.22v5.958C59.22,47.136,60.624,48.162,62.5,48.162ZM70,48H71.5V42.834c0-2.322,1.206-2.916,3.1-3.006v-1.4a3.286,3.286,0,0,0-3.1,1.854V38.586H70Zm9.954.162a3.214,3.214,0,0,0,2.988-1.656V48h1.494V38.586H82.944v5.706a2.477,2.477,0,0,1-2.592,2.574c-1.476,0-2.178-.738-2.178-2.394V38.586H76.68v5.958C76.68,47.136,78.084,48.162,79.956,48.162Zm7.614,2.052,2.214-3.762-1.458-.684L86.6,49.71ZM97.416,48h1.566V41.718L104.724,48h1.89L100.6,41.376l5.724-6.246H104.58l-5.6,6.192V35.13H97.416Zm13.338.162a3.392,3.392,0,0,0,2.934-1.35V48h1.494V41.79c0-2.628-1.638-3.366-3.438-3.366-1.818,0-3.528.792-3.726,2.934h1.494c.144-1.152.864-1.692,2.16-1.692,1.44,0,2.016.63,2.016,2.124v.684h-1.35c-2.412,0-4.716.738-4.716,2.916C107.622,47.316,109.008,48.162,110.754,48.162Zm.144-1.188c-1.314,0-1.782-.612-1.782-1.584,0-1.386,1.386-1.854,3.276-1.854h1.3v1.17C113.688,46.164,112.482,46.974,110.9,46.974ZM118.116,48h1.494V42.834c0-2.322,1.206-2.916,3.1-3.006v-1.4a3.286,3.286,0,0,0-3.1,1.854V38.586h-1.494Zm6.768,0h1.494V42.294a2.477,2.477,0,0,1,2.628-2.574c1.512,0,2.214.738,2.214,2.394V48h1.494V42.222c0-2.736-1.368-3.8-3.312-3.8a3.234,3.234,0,0,0-3.024,1.656V38.586h-1.494Zm13.122.162a3.392,3.392,0,0,0,2.934-1.35V48h1.494V41.79c0-2.628-1.638-3.366-3.438-3.366-1.818,0-3.528.792-3.726,2.934h1.494c.144-1.152.864-1.692,2.16-1.692,1.44,0,2.016.63,2.016,2.124v.684h-1.35c-2.412,0-4.716.738-4.716,2.916C134.874,47.316,136.26,48.162,138.006,48.162Zm.144-1.188c-1.314,0-1.782-.612-1.782-1.584,0-1.386,1.386-1.854,3.276-1.854h1.3v1.17C140.94,46.164,139.734,46.974,138.15,46.974Zm10.08,1.152a3.561,3.561,0,0,0,1.278-.2v-1.26a3.075,3.075,0,0,1-1.152.2c-.756,0-1.17-.45-1.17-1.368V39.846h2.2v-1.26h-2.2V36.444h-1.494v2.142h-1.35v1.26h1.35v5.8A2.288,2.288,0,0,0,148.23,48.126Zm5.976.036a3.392,3.392,0,0,0,2.934-1.35V48h1.494V41.79c0-2.628-1.638-3.366-3.438-3.366-1.818,0-3.528.792-3.726,2.934h1.494c.144-1.152.864-1.692,2.16-1.692,1.44,0,2.016.63,2.016,2.124v.684h-1.35c-2.412,0-4.716.738-4.716,2.916C151.074,47.316,152.46,48.162,154.206,48.162Zm.144-1.188c-1.314,0-1.782-.612-1.782-1.584,0-1.386,1.386-1.854,3.276-1.854h1.3v1.17C157.14,46.164,155.934,46.974,154.35,46.974ZM161.568,48h1.494V43.122L167.238,48h1.818l-4.374-5.04,4.032-4.374h-1.746l-3.906,4.338V34.086h-1.494Zm11.556.162a3.392,3.392,0,0,0,2.934-1.35V48h1.494V41.79c0-2.628-1.638-3.366-3.438-3.366-1.818,0-3.528.792-3.726,2.934h1.494c.144-1.152.864-1.692,2.16-1.692,1.44,0,2.016.63,2.016,2.124v.684h-1.35c-2.412,0-4.716.738-4.716,2.916C169.992,47.316,171.378,48.162,173.124,48.162Zm.144-1.188c-1.314,0-1.782-.612-1.782-1.584,0-1.386,1.386-1.854,3.276-1.854h1.3v1.17C176.058,46.164,174.852,46.974,173.268,46.974Zm8.244,1.116a1.152,1.152,0,1,0-1.152-1.152A1.148,1.148,0,0,0,181.512,48.09ZM5.058,72.162a4.2,4.2,0,0,0,4.41-4.374,3.922,3.922,0,0,0-4-4.266,3.806,3.806,0,0,0-2.628.882V60.48h5.94V59.13H1.548v6.894h.576a3.676,3.676,0,0,1,3.042-1.242,2.689,2.689,0,0,1,2.7,3.006c0,1.944-1.08,3.114-2.826,3.114a2.439,2.439,0,0,1-2.772-2.376H.774C.954,70.632,2.286,72.162,5.058,72.162Zm11.034,0a4.112,4.112,0,0,0,4.446-4.3,4.055,4.055,0,0,0-4.212-4.212,3.74,3.74,0,0,0-3.312,1.746c.072-3.4,1.44-5.148,3.384-5.148a2.133,2.133,0,0,1,2.376,1.836h1.494a3.5,3.5,0,0,0-3.762-3.114c-2.952,0-5.04,2.412-5.04,7.038v.306C11.466,69.534,12.582,72.162,16.092,72.162Zm0-1.224c-1.728,0-2.97-1.116-2.97-3.222a2.78,2.78,0,0,1,2.952-2.844,3.039,3.039,0,0,1,.018,6.066ZM27.63,72.162c3.168,0,4.986-2.52,4.986-6.264v-.72c0-3.672-1.854-6.21-5.022-6.21-3.15,0-5.076,2.448-5.076,6.246v.72C22.518,69.678,24.552,72.162,27.63,72.162Zm0-1.3c-2.142,0-3.51-1.692-3.51-4.95V65.2c0-3.168,1.3-4.968,3.474-4.968s3.438,1.944,3.438,4.932v.72C31.032,69.138,29.88,70.866,27.63,70.866Zm12.258,1.3c3.168,0,4.986-2.52,4.986-6.264v-.72c0-3.672-1.854-6.21-5.022-6.21-3.15,0-5.076,2.448-5.076,6.246v.72C34.776,69.678,36.81,72.162,39.888,72.162Zm0-1.3c-2.142,0-3.51-1.692-3.51-4.95V65.2c0-3.168,1.3-4.968,3.474-4.968s3.438,1.944,3.438,4.932v.72C43.29,69.138,42.138,70.866,39.888,70.866Zm12.258,1.3c3.168,0,4.986-2.52,4.986-6.264v-.72c0-3.672-1.854-6.21-5.022-6.21-3.15,0-5.076,2.448-5.076,6.246v.72C47.034,69.678,49.068,72.162,52.146,72.162Zm0-1.3c-2.142,0-3.51-1.692-3.51-4.95V65.2c0-3.168,1.3-4.968,3.474-4.968s3.438,1.944,3.438,4.932v.72C55.548,69.138,54.4,70.866,52.146,70.866ZM61.686,72h1.566V59.13H61.794l-2.988,2.16v1.458l2.88-2.07Z" transform="translate(-0.774 13.914)" fill="#fff"/>
</svg>
