<svg xmlns="http://www.w3.org/2000/svg" width="172.656" height="17.19" viewBox="0 0 172.656 17.19">
  <path id="Edit" d="M-173.412,0h7.83V-1.278h-6.264V-5.94h4.788V-7.218h-4.788v-4.374h5.94V-12.87h-7.506Zm13.626.162a3.968,3.968,0,0,0,3.222-1.782V0h1.494V-13.914h-1.494V-7.9a3.373,3.373,0,0,0-3.078-1.674c-2.592,0-4.392,2.034-4.392,4.914v.144C-164.034-1.584-162.252.162-159.786.162Zm.162-1.242c-1.584,0-2.862-1.134-2.862-3.51v-.144c0-2.286,1.116-3.6,2.988-3.6,1.836,0,2.988,1.134,2.988,3.546v.144C-156.51-2.232-157.878-1.08-159.624-1.08Zm8.334-10.3a1,1,0,0,0,.99-.99,1,1,0,0,0-.99-.99,1,1,0,0,0-.99.99A1,1,0,0,0-151.29-11.376ZM-152.01,0h1.494V-9.414h-1.494Zm7.416.126a3.561,3.561,0,0,0,1.278-.2v-1.26a3.075,3.075,0,0,1-1.152.2c-.756,0-1.17-.45-1.17-1.368V-8.154h2.2v-1.26h-2.2v-2.142h-1.494v2.142h-1.35v1.26h1.35v5.8A2.288,2.288,0,0,0-144.594.126Zm11.844.036a3.968,3.968,0,0,0,3.222-1.782V0h1.494V-13.914h-1.494V-7.9a3.373,3.373,0,0,0-3.078-1.674C-135.2-9.576-137-7.542-137-4.662v.144C-137-1.584-135.216.162-132.75.162Zm.162-1.242c-1.584,0-2.862-1.134-2.862-3.51v-.144c0-2.286,1.116-3.6,2.988-3.6,1.836,0,2.988,1.134,2.988,3.546v.144C-129.474-2.232-130.842-1.08-132.588-1.08Zm11.43,1.242c2.124,0,3.69-.99,4.014-2.88h-1.494c-.2,1.1-1.044,1.638-2.5,1.638-1.926,0-2.952-1.188-3.024-3.33h7.092V-4.9c0-3.366-2.052-4.68-4.23-4.68-2.592,0-4.41,1.98-4.41,4.824v.144A4.425,4.425,0,0,0-121.158.162Zm-2.952-5.778A2.822,2.822,0,0,1-121.3-8.334c1.548,0,2.556.774,2.7,2.718ZM-114.75,0h1.512V-13.914h-1.512Zm5.328-11.376a1,1,0,0,0,.99-.99,1,1,0,0,0-.99-.99,1,1,0,0,0-.99.99A1,1,0,0,0-109.422-11.376ZM-110.142,0h1.494V-9.414h-1.494Zm6.912,0h1.908l3.384-9.414h-1.548l-2.754,7.9-2.79-7.9h-1.62Zm10.836.162c2.124,0,3.69-.99,4.014-2.88h-1.494c-.2,1.1-1.044,1.638-2.5,1.638-1.926,0-2.952-1.188-3.024-3.33h7.092V-4.9c0-3.366-2.052-4.68-4.23-4.68-2.592,0-4.41,1.98-4.41,4.824v.144A4.425,4.425,0,0,0-92.394.162Zm-2.952-5.778a2.822,2.822,0,0,1,2.808-2.718c1.548,0,2.556.774,2.7,2.718ZM-86.022,0h1.494V-5.166c0-2.322,1.206-2.916,3.1-3.006v-1.4a3.286,3.286,0,0,0-3.1,1.854V-9.414h-1.494Zm7.7,3.276h1.512l5.2-12.69h-1.53l-2.61,6.75-2.88-6.75h-1.6l3.69,8.442Zm15.8-3.114a3.392,3.392,0,0,0,2.934-1.35V0h1.494V-6.21c0-2.628-1.638-3.366-3.438-3.366-1.818,0-3.528.792-3.726,2.934h1.494c.144-1.152.864-1.692,2.16-1.692,1.44,0,2.016.63,2.016,2.124v.684h-1.35c-2.412,0-4.716.738-4.716,2.916C-65.646-.684-64.26.162-62.514.162Zm.144-1.188c-1.314,0-1.782-.612-1.782-1.584,0-1.386,1.386-1.854,3.276-1.854h1.3v1.17C-59.58-1.836-60.786-1.026-62.37-1.026ZM-51.606.162A3.968,3.968,0,0,0-48.384-1.62V0h1.494V-13.914h-1.494V-7.9a3.373,3.373,0,0,0-3.078-1.674c-2.592,0-4.392,2.034-4.392,4.914v.144C-55.854-1.584-54.072.162-51.606.162Zm.162-1.242c-1.584,0-2.862-1.134-2.862-3.51v-.144c0-2.286,1.116-3.6,2.988-3.6,1.836,0,2.988,1.134,2.988,3.546v.144C-48.33-2.232-49.7-1.08-51.444-1.08ZM-40.32.162A3.968,3.968,0,0,0-37.1-1.62V0H-35.6V-13.914H-37.1V-7.9a3.373,3.373,0,0,0-3.078-1.674c-2.592,0-4.392,2.034-4.392,4.914v.144C-44.568-1.584-42.786.162-40.32.162Zm.162-1.242c-1.584,0-2.862-1.134-2.862-3.51v-.144c0-2.286,1.116-3.6,2.988-3.6,1.836,0,2.988,1.134,2.988,3.546v.144C-37.044-2.232-38.412-1.08-40.158-1.08ZM-32.58,0h1.494V-5.166c0-2.322,1.206-2.916,3.1-3.006v-1.4a3.286,3.286,0,0,0-3.1,1.854V-9.414H-32.58Zm10.35.162c2.124,0,3.69-.99,4.014-2.88H-19.71c-.2,1.1-1.044,1.638-2.5,1.638-1.926,0-2.952-1.188-3.024-3.33h7.092V-4.9c0-3.366-2.052-4.68-4.23-4.68-2.592,0-4.41,1.98-4.41,4.824v.144A4.425,4.425,0,0,0-22.23.162Zm-2.952-5.778a2.822,2.822,0,0,1,2.808-2.718c1.548,0,2.556.774,2.7,2.718ZM-12.852.162C-10.566.162-9.4-.99-9.4-2.7c0-2-1.368-2.43-3.312-2.79-1.728-.306-2.2-.648-2.2-1.494,0-.81.7-1.35,1.782-1.35,1.188,0,1.764.45,1.98,1.476H-9.7c-.252-2.034-1.71-2.718-3.4-2.718-1.476,0-3.186.9-3.186,2.646,0,1.638.828,2.322,3.276,2.772,1.458.27,2.2.594,2.2,1.584,0,1.008-.63,1.494-2.052,1.494-1.512,0-2.106-.7-2.214-1.818h-1.458C-16.452-.972-15.1.162-12.852.162Zm8.64,0C-1.926.162-.756-.99-.756-2.7c0-2-1.368-2.43-3.312-2.79-1.728-.306-2.2-.648-2.2-1.494,0-.81.7-1.35,1.782-1.35,1.188,0,1.764.45,1.98,1.476h1.44c-.252-2.034-1.71-2.718-3.4-2.718-1.476,0-3.186.9-3.186,2.646,0,1.638.828,2.322,3.276,2.772,1.458.27,2.2.594,2.2,1.584,0,1.008-.63,1.494-2.052,1.494-1.512,0-2.106-.7-2.214-1.818H-7.9C-7.812-.972-6.462.162-4.212.162Z" transform="translate(173.412 13.914)" fill="#05abb2"/>
</svg>
