<svg xmlns="http://www.w3.org/2000/svg" width="161.28" height="18.76" viewBox="0 0 161.28 18.76">
  <path id="Payment_Method" data-name="Payment Method" d="M1.54,0H4.76V-5.2H6.58c3.26,0,5.36-1.44,5.36-4.46v-.08c0-3.02-1.98-4.56-5.46-4.56H1.54ZM4.76-7.46v-4.38H6.4c1.54,0,2.42.6,2.42,2.12v.08c0,1.42-.84,2.18-2.42,2.18ZM16.36.22a3.556,3.556,0,0,0,3.16-1.48V0h2.82V-6.82c0-2.84-1.82-3.88-4.38-3.88s-4.52,1.1-4.7,3.58H16A1.577,1.577,0,0,1,17.78-8.6c1.32,0,1.7.68,1.7,1.92v.42H18.3c-3.2,0-5.44.92-5.44,3.36C12.86-.7,14.46.22,16.36.22Zm.86-2.02c-1.06,0-1.52-.5-1.52-1.26,0-1.12.98-1.48,2.66-1.48h1.12v.88C19.48-2.5,18.5-1.8,17.22-1.8ZM25.8,3.56h2.8l5.66-14.02H31.48L29.14-4.18,26.6-10.46H23.48l4.16,9.4ZM35.82,0h2.9V-6.18a1.944,1.944,0,0,1,2.02-2.14c1.02,0,1.64.6,1.64,1.94V0h2.88V-6.18a1.944,1.944,0,0,1,2.02-2.14c1.04,0,1.64.6,1.64,1.94V0H51.8V-6.7c0-2.78-1.5-4-3.44-4a4.155,4.155,0,0,0-3.52,1.82,2.884,2.884,0,0,0-2.92-1.82,3.557,3.557,0,0,0-3.2,1.84v-1.6h-2.9ZM59.1.22c2.86,0,4.66-1.26,5-3.52H61.36c-.18.88-.84,1.46-2.18,1.46-1.58,0-2.52-1-2.6-2.74h7.54v-.8c0-3.74-2.4-5.32-5.1-5.32a5.193,5.193,0,0,0-5.38,5.44v.16C53.64-1.76,55.94.22,59.1.22ZM56.62-6.36a2.4,2.4,0,0,1,2.4-2.34c1.38,0,2.18.76,2.28,2.34ZM66.02,0h2.9V-6.04a2.071,2.071,0,0,1,2.18-2.3c1.28,0,1.84.68,1.84,2.1V0h2.9V-6.66c0-2.8-1.46-4.04-3.52-4.04a3.613,3.613,0,0,0-3.4,1.9v-1.66h-2.9ZM82.14.2A5.268,5.268,0,0,0,83.9-.08V-2.32a2.7,2.7,0,0,1-1.1.2c-.74,0-1.16-.4-1.16-1.24V-8.4h2.2v-2.06h-2.2v-2.26H78.76v2.26H77.42V-8.4h1.34v5.3C78.76-.92,79.94.2,82.14.2ZM90.3,0h2.9V-6.18a1.944,1.944,0,0,1,2.02-2.14c1.02,0,1.64.6,1.64,1.94V0h2.88V-6.18a1.944,1.944,0,0,1,2.02-2.14c1.04,0,1.64.6,1.64,1.94V0h2.88V-6.7c0-2.78-1.5-4-3.44-4a4.155,4.155,0,0,0-3.52,1.82A2.884,2.884,0,0,0,96.4-10.7a3.557,3.557,0,0,0-3.2,1.84v-1.6H90.3Zm23.28.22c2.86,0,4.66-1.26,5-3.52h-2.74c-.18.88-.84,1.46-2.18,1.46-1.58,0-2.52-1-2.6-2.74h7.54v-.8c0-3.74-2.4-5.32-5.1-5.32a5.193,5.193,0,0,0-5.38,5.44v.16C108.12-1.76,110.42.22,113.58.22ZM111.1-6.36a2.4,2.4,0,0,1,2.4-2.34c1.38,0,2.18.76,2.28,2.34ZM124.32.2a5.268,5.268,0,0,0,1.76-.28V-2.32a2.7,2.7,0,0,1-1.1.2c-.74,0-1.16-.4-1.16-1.24V-8.4h2.2v-2.06h-2.2v-2.26h-2.88v2.26H119.6V-8.4h1.34v5.3C120.94-.92,122.12.2,124.32.2Zm3.72-.2h2.9V-6.04a2.071,2.071,0,0,1,2.18-2.3c1.28,0,1.84.68,1.84,2.1V0h2.9V-6.66c0-2.8-1.46-4.04-3.52-4.04a3.613,3.613,0,0,0-3.4,1.9v-6.4h-2.9ZM145.2.22a5.218,5.218,0,0,0,5.52-5.4v-.16a5.192,5.192,0,0,0-5.5-5.36,5.245,5.245,0,0,0-5.52,5.42v.16A5.187,5.187,0,0,0,145.2.22Zm.02-2.2c-1.64,0-2.56-1.2-2.56-3.2v-.16c0-2,.96-3.16,2.56-3.16,1.62,0,2.56,1.2,2.56,3.2v.14C147.78-3.18,146.84-1.98,145.22-1.98ZM156.58.22a3.807,3.807,0,0,0,3.36-1.96V0h2.88V-15.2h-2.88v6.3a3.482,3.482,0,0,0-3.3-1.8c-2.62,0-4.6,2.02-4.6,5.46v.16C152.04-1.6,154.04.22,156.58.22Zm.86-2.26C156-2.04,155-3.06,155-5.14V-5.3c0-2.08.9-3.18,2.52-3.18,1.58,0,2.5,1.06,2.5,3.14v.16C160.02-3.06,158.96-2.04,157.44-2.04Z" transform="translate(-1.54 15.2)" fill="#fff"/>
</svg>
