<svg xmlns="http://www.w3.org/2000/svg" width="83.718" height="13.266" viewBox="0 0 83.718 13.266">
  <path id="Path_2437" data-name="Path 2437" d="M-41.526,0h2.9V-4.68h1.638c2.934,0,4.824-1.3,4.824-4.014v-.072c0-2.718-1.782-4.1-4.914-4.1h-4.446Zm2.9-6.714v-3.942h1.476c1.386,0,2.178.54,2.178,1.908v.072c0,1.278-.756,1.962-2.178,1.962ZM-30.258,0h2.9V-4.968h1.26L-23.022,0h3.1l-3.4-5.472a3.345,3.345,0,0,0,2.646-3.42v-.072c0-2.664-1.926-3.906-4.968-3.906h-4.608Zm2.9-6.948v-3.69h1.638c1.4,0,2.2.45,2.2,1.764V-8.8c0,1.242-.738,1.854-2.2,1.854ZM-12.4.2A6.326,6.326,0,0,0-5.76-6.426V-6.57a6.256,6.256,0,0,0-6.624-6.48A6.363,6.363,0,0,0-19.008-6.5v.144A6.269,6.269,0,0,0-12.4.2Zm.054-2.322c-2.106,0-3.618-1.62-3.618-4.248v-.144c0-2.592,1.35-4.23,3.582-4.23,2.25,0,3.582,1.71,3.582,4.212v.144C-8.8-3.8-10.17-2.124-12.348-2.124ZM2.142.2C5.31.2,7.6-1.44,7.92-4.626H5.058A2.7,2.7,0,0,1,2.106-2.16c-2.124,0-3.348-1.548-3.348-4.212v-.144c0-2.664,1.3-4.248,3.33-4.248a2.455,2.455,0,0,1,2.7,2.376H7.776c-.306-3.168-2.61-4.68-5.706-4.68A6.241,6.241,0,0,0-4.32-6.5v.144C-4.32-2.394-2.07.2,2.142.2ZM9.81,0h8.676V-2.268H12.708v-3.2H17.1V-7.6H12.708V-10.6H18.2V-12.87H9.81ZM20.52,0H29.2V-2.268H23.418v-3.2H27.81V-7.6H23.418V-10.6h5.49V-12.87H20.52ZM31.23,0h4.194c4.518,0,6.768-2.574,6.768-6.426V-6.57c0-3.852-2.232-6.3-6.75-6.3H31.23Zm2.916-2.268V-10.6H35.3c2.718,0,3.852,1.422,3.852,4.068v.144c0,2.664-1.224,4.122-3.816,4.122Z" transform="translate(41.526 13.068)" fill="#fff"/>
</svg>
