<svg xmlns="http://www.w3.org/2000/svg" width="113" height="34" viewBox="0 0 113 34">
  <g id="CTA_DONE" data-name="CTA DONE" transform="translate(-461 -303)">
    <g id="Rectangle_52" data-name="Rectangle 52" transform="translate(461 303)" fill="#7147fd" stroke="#707070" stroke-width="1">
      <rect width="113" height="34" rx="17" stroke="none"/>
      <rect x="0.5" y="0.5" width="112" height="33" rx="16.5" fill="none"/>
    </g>
    <path id="Path_1196" data-name="Path 1196" d="M1.155,0h3.5c3.765,0,5.64-2.145,5.64-5.355v-.12c0-3.21-1.86-5.25-5.625-5.25H1.155Zm2.43-1.89V-8.835h.96c2.265,0,3.21,1.185,3.21,3.39v.12c0,2.22-1.02,3.435-3.18,3.435ZM15.5.165a3.913,3.913,0,0,0,4.14-4.05V-4a3.894,3.894,0,0,0-4.125-4.02A3.934,3.934,0,0,0,11.37-3.96v.12A3.89,3.89,0,0,0,15.5.165Zm.015-1.65c-1.23,0-1.92-.9-1.92-2.4V-4c0-1.5.72-2.37,1.92-2.37,1.215,0,1.92.9,1.92,2.4v.105C17.43-2.385,16.725-1.485,15.51-1.485ZM21.09,0h2.175V-4.53A1.554,1.554,0,0,1,24.9-6.255c.96,0,1.38.51,1.38,1.575V0h2.175V-4.995c0-2.1-1.095-3.03-2.64-3.03A2.71,2.71,0,0,0,23.265-6.6V-7.845H21.09ZM33.93.165c2.145,0,3.495-.945,3.75-2.64H35.625c-.135.66-.63,1.1-1.635,1.1a1.88,1.88,0,0,1-1.95-2.055h5.655v-.6a3.617,3.617,0,0,0-3.825-3.99,3.9,3.9,0,0,0-4.035,4.08v.12A3.807,3.807,0,0,0,33.93.165ZM32.07-4.77a1.8,1.8,0,0,1,1.8-1.755c1.035,0,1.635.57,1.71,1.755Z" transform="translate(497.845 325.724)" fill="#fff"/>
  </g>
</svg>
