<svg xmlns="http://www.w3.org/2000/svg" width="29" height="29" viewBox="0 0 29 29">
  <g id="CLOSE_BUTTON" data-name="CLOSE BUTTON" transform="translate(-1048 -361)">
    <g id="Close_Border" data-name="Close Border" transform="translate(1048 361)" fill="none" stroke="#fff" stroke-width="1">
      <rect width="29" height="29" rx="7" stroke="none"/>
      <rect x="0.5" y="0.5" width="28" height="28" rx="6.5" fill="none"/>
    </g>
    <path id="Path_1198" data-name="Path 1198" d="M16.941,22.711H13.21a.928.928,0,0,1-.6-.187,1.468,1.468,0,0,1-.367-.435l-3.9-6.641q-.062.137-.118.267a1.5,1.5,0,0,1-.131.243L4.381,22.089A2.326,2.326,0,0,1,4,22.518a.8.8,0,0,1-.553.193H-.034l5.907-9.29L.19,4.667H3.921a1.147,1.147,0,0,1,.547.1.9.9,0,0,1,.311.323l3.88,6.38q.062-.149.137-.3a3.479,3.479,0,0,1,.174-.317l3.482-5.7a1.109,1.109,0,0,1,.33-.367.788.788,0,0,1,.441-.118h3.569L11.059,13.26Z" transform="translate(1054.348 361.477)" fill="#fff"/>
  </g>
</svg>
