<svg xmlns="http://www.w3.org/2000/svg" width="292.62" height="19.28" viewBox="0 0 292.62 19.28">
  <path id="Path_2631" data-name="Path 2631" d="M.72,0H2.36L3.74-4.12h5.9L11.04,0h1.72L7.92-14.3H5.64ZM6.7-12.86,9.18-5.5H4.22ZM19.2.18a4.366,4.366,0,0,0,4.56-3.94H22.22a2.826,2.826,0,0,1-3,2.56c-2.02,0-3.42-1.36-3.42-3.92v-.16c0-2.46,1.46-3.98,3.36-3.98a2.611,2.611,0,0,1,2.9,2.28H23.7c-.32-2.66-2.36-3.66-4.54-3.66a5.083,5.083,0,0,0-5.08,5.36v.16A4.973,4.973,0,0,0,19.2.18Zm11.4,0a4.366,4.366,0,0,0,4.56-3.94H33.62a2.826,2.826,0,0,1-3,2.56c-2.02,0-3.42-1.36-3.42-3.92v-.16c0-2.46,1.46-3.98,3.36-3.98a2.611,2.611,0,0,1,2.9,2.28H35.1c-.32-2.66-2.36-3.66-4.54-3.66a5.083,5.083,0,0,0-5.08,5.36v.16A4.973,4.973,0,0,0,30.6.18Zm11.34,0c2.36,0,4.1-1.1,4.46-3.2H44.74C44.52-1.8,43.58-1.2,41.96-1.2c-2.14,0-3.28-1.32-3.36-3.7h7.88v-.54c0-3.74-2.28-5.2-4.7-5.2-2.88,0-4.9,2.2-4.9,5.36v.16C36.88-1.9,38.98.18,41.94.18ZM38.66-6.24c.28-1.86,1.42-3.02,3.12-3.02,1.72,0,2.84.86,3,3.02ZM49.02,0h1.66V-6.34A2.752,2.752,0,0,1,53.6-9.2c1.68,0,2.46.82,2.46,2.66V0h1.66V-6.42c0-3.04-1.52-4.22-3.68-4.22A3.593,3.593,0,0,0,50.68-8.8v-1.66H49.02ZM64.16.14a3.956,3.956,0,0,0,1.42-.22v-1.4a3.417,3.417,0,0,1-1.28.22c-.84,0-1.3-.5-1.3-1.52V-9.06h2.44v-1.4H63v-2.38H61.34v2.38h-1.5v1.4h1.5v6.44A2.542,2.542,0,0,0,64.16.14Zm7.46.04a3.571,3.571,0,0,0,3.32-1.84V0H76.6V-10.46H74.94v6.34a2.752,2.752,0,0,1-2.88,2.86c-1.64,0-2.42-.82-2.42-2.66v-6.54H67.98v6.62C67.98-.96,69.54.18,71.62.18ZM79.96,0h1.66V-5.74c0-2.58,1.34-3.24,3.44-3.34v-1.56a3.651,3.651,0,0,0-3.44,2.06v-1.88H79.96Zm11.5.18c2.36,0,4.1-1.1,4.46-3.2H94.26C94.04-1.8,93.1-1.2,91.48-1.2c-2.14,0-3.28-1.32-3.36-3.7H96v-.54c0-3.74-2.28-5.2-4.7-5.2-2.88,0-4.9,2.2-4.9,5.36v.16C86.4-1.9,88.5.18,91.46.18ZM88.18-6.24c.28-1.86,1.42-3.02,3.12-3.02,1.72,0,2.84.86,3,3.02ZM103.96,0h1.6V-12.04L110.46,0H111l4.74-12.04V0h1.74V-14.3h-2.4L110.8-3.16,106.38-14.3h-2.42Zm21.28.18c2.36,0,4.1-1.1,4.46-3.2h-1.66c-.22,1.22-1.16,1.82-2.78,1.82-2.14,0-3.28-1.32-3.36-3.7h7.88v-.54c0-3.74-2.28-5.2-4.7-5.2-2.88,0-4.9,2.2-4.9,5.36v.16C120.18-1.9,122.28.18,125.24.18Zm-3.28-6.42c.28-1.86,1.42-3.02,3.12-3.02,1.72,0,2.84.86,3,3.02ZM135.5.14a3.956,3.956,0,0,0,1.42-.22v-1.4a3.417,3.417,0,0,1-1.28.22c-.84,0-1.3-.5-1.3-1.52V-9.06h2.44v-1.4h-2.44v-2.38h-1.66v2.38h-1.5v1.4h1.5v6.44A2.542,2.542,0,0,0,135.5.14Zm6.64.04a3.769,3.769,0,0,0,3.26-1.5V0h1.66V-6.9c0-2.92-1.82-3.74-3.82-3.74-2.02,0-3.92.88-4.14,3.26h1.66c.16-1.28.96-1.88,2.4-1.88,1.6,0,2.24.7,2.24,2.36v.76h-1.5c-2.68,0-5.24.82-5.24,3.24C138.66-.76,140.2.18,142.14.18Zm.16-1.32c-1.46,0-1.98-.68-1.98-1.76,0-1.54,1.54-2.06,3.64-2.06h1.44v1.3C145.4-2.04,144.06-1.14,142.3-1.14ZM152.64,0h2.12l3.76-10.46H156.8l-3.06,8.78-3.1-8.78h-1.8Zm12.04.18c2.36,0,4.1-1.1,4.46-3.2h-1.66c-.22,1.22-1.16,1.82-2.78,1.82-2.14,0-3.28-1.32-3.36-3.7h7.88v-.54c0-3.74-2.28-5.2-4.7-5.2-2.88,0-4.9,2.2-4.9,5.36v.16C159.62-1.9,161.72.18,164.68.18ZM161.4-6.24c.28-1.86,1.42-3.02,3.12-3.02,1.72,0,2.84.86,3,3.02ZM171.76,0h1.66V-5.74c0-2.58,1.34-3.24,3.44-3.34v-1.56a3.651,3.651,0,0,0-3.44,2.06v-1.88h-1.66Zm10.66.18c2.54,0,3.84-1.28,3.84-3.18,0-2.22-1.52-2.7-3.68-3.1-1.92-.34-2.44-.72-2.44-1.66,0-.9.78-1.5,1.98-1.5,1.32,0,1.96.5,2.2,1.64h1.6c-.28-2.26-1.9-3.02-3.78-3.02-1.64,0-3.54,1-3.54,2.94,0,1.82.92,2.58,3.64,3.08,1.62.3,2.44.66,2.44,1.76,0,1.12-.7,1.66-2.28,1.66-1.68,0-2.34-.78-2.46-2.02h-1.62C178.42-1.08,179.92.18,182.42.18Zm10.64,0c2.36,0,4.1-1.1,4.46-3.2h-1.66c-.22,1.22-1.16,1.82-2.78,1.82-2.14,0-3.28-1.32-3.36-3.7h7.88v-.54c0-3.74-2.28-5.2-4.7-5.2-2.88,0-4.9,2.2-4.9,5.36v.16C188-1.9,190.1.18,193.06.18Zm-3.28-6.42c.28-1.86,1.42-3.02,3.12-3.02,1.72,0,2.84.86,3,3.02ZM210.18.18c2.84,0,4.94-1.82,4.94-4.22,0-2.7-1.68-3.66-4.86-4.16-2.92-.44-3.44-1.16-3.44-2.56,0-1.34,1.02-2.32,2.98-2.32,1.98,0,3.02.74,3.36,2.54h1.56c-.28-2.54-2.06-3.94-4.92-3.94-2.7,0-4.6,1.68-4.6,3.88,0,2.54,1.78,3.48,4.78,3.94,2.72.44,3.46,1.12,3.46,2.74s-1.42,2.7-3.26,2.7c-2.88,0-3.56-1.44-3.78-3.14h-1.68C204.98-1.92,206.36.18,210.18.18Zm7.8-.18h1.66V-6.34a2.752,2.752,0,0,1,2.92-2.86c1.68,0,2.46.82,2.46,2.66V0h1.66V-6.42c0-3.04-1.52-4.22-3.68-4.22a3.593,3.593,0,0,0-3.36,1.84v-6.66h-1.66Zm16.3.18a5.049,5.049,0,0,0,5.16-5.34v-.16a5.039,5.039,0,0,0-5.14-5.32,5.055,5.055,0,0,0-5.14,5.34v.16A5.057,5.057,0,0,0,234.28.18Zm.02-1.38c-2.12,0-3.42-1.56-3.42-3.94V-5.3c0-2.4,1.32-3.96,3.42-3.96,2.08,0,3.42,1.56,3.42,3.98v.14C237.72-2.78,236.4-1.2,234.3-1.2Zm7.72,4.84h1.66V-1.72a3.965,3.965,0,0,0,3.54,1.9c2.88,0,4.76-2.2,4.76-5.4v-.16c0-3.26-2.02-5.26-4.76-5.26a4.3,4.3,0,0,0-3.54,1.94v-1.76h-1.66Zm5.04-4.84c-2.04,0-3.44-1.26-3.44-3.94V-5.3c0-2.68,1.48-3.96,3.42-3.96,1.76,0,3.22,1.32,3.22,3.96v.16C250.26-2.6,249.14-1.2,247.06-1.2Zm7.5,4.84h1.66V-1.72a3.965,3.965,0,0,0,3.54,1.9c2.88,0,4.76-2.2,4.76-5.4v-.16c0-3.26-2.02-5.26-4.76-5.26a4.3,4.3,0,0,0-3.54,1.94v-1.76h-1.66ZM259.6-1.2c-2.04,0-3.44-1.26-3.44-3.94V-5.3c0-2.68,1.48-3.96,3.42-3.96,1.76,0,3.22,1.32,3.22,3.96v.16C262.8-2.6,261.68-1.2,259.6-1.2Zm8.34-11.44a1.11,1.11,0,0,0,1.1-1.1,1.11,1.11,0,0,0-1.1-1.1,1.11,1.11,0,0,0-1.1,1.1A1.11,1.11,0,0,0,267.94-12.64ZM267.14,0h1.66V-10.46h-1.66Zm5.06,0h1.66V-6.34a2.752,2.752,0,0,1,2.92-2.86c1.68,0,2.46.82,2.46,2.66V0h1.66V-6.42c0-3.04-1.52-4.22-3.68-4.22a3.593,3.593,0,0,0-3.36,1.84v-1.66H272.2Zm16.14,3.82c2.92,0,4.98-1.48,5-4.52v-9.76h-1.66v1.68a3.747,3.747,0,0,0-3.42-1.86,4.95,4.95,0,0,0-4.88,5.2v.14a4.71,4.71,0,0,0,4.76,4.96,4.334,4.334,0,0,0,3.54-1.98V-.8c0,2.24-1.3,3.22-3.36,3.22-1.78,0-2.78-.62-3.02-1.82h-1.7C283.88,2.36,285.24,3.82,288.34,3.82Zm-.02-5.54c-1.76,0-3.22-1.36-3.22-3.64v-.16c0-2.2,1.24-3.74,3.32-3.74,2.04,0,3.32,1.36,3.32,3.7v.14A3.367,3.367,0,0,1,288.32-1.72Z" transform="translate(-0.72 15.46)" fill="#f5c697"/>
</svg>
