<svg xmlns="http://www.w3.org/2000/svg" width="66.975" height="18.1" viewBox="0 0 66.975 18.1">
  <path id="Home" d="M2.6,28H4.775V20.05h9.4V28H16.35V10.125H14.175v8.1h-9.4v-8.1H2.6Zm23.525.225a6.311,6.311,0,0,0,6.45-6.675v-.2a6.429,6.429,0,1,0-12.85.025v.2A6.321,6.321,0,0,0,26.125,28.225ZM26.15,26.5c-2.65,0-4.275-1.95-4.275-4.925v-.2c0-3,1.65-4.95,4.275-4.95,2.6,0,4.275,1.95,4.275,4.975v.175C30.425,24.525,28.775,26.5,26.15,26.5ZM35.8,28h2.075V20a3.341,3.341,0,0,1,3.45-3.5c1.8,0,2.775.95,2.775,3.25V28h2.075V20a3.341,3.341,0,0,1,3.45-3.5c1.8,0,2.775.95,2.775,3.25V28h2.075V19.9c0-3.8-2.05-5.2-4.4-5.2A5.059,5.059,0,0,0,45.6,17.15a3.793,3.793,0,0,0-3.825-2.45,4.257,4.257,0,0,0-3.9,2.225v-2H35.8Zm28.1.225c2.95,0,5.125-1.375,5.575-4H67.4c-.275,1.525-1.45,2.275-3.475,2.275-2.675,0-4.1-1.65-4.2-4.625h9.85V21.2c0-4.675-2.85-6.5-5.875-6.5-3.6,0-6.125,2.75-6.125,6.7v.2C57.575,25.625,60.2,28.225,63.9,28.225ZM59.8,20.2c.35-2.325,1.775-3.775,3.9-3.775,2.15,0,3.55,1.075,3.75,3.775Z" transform="translate(-2.6 -10.125)" fill="#fff"/>
</svg>
