<svg xmlns="http://www.w3.org/2000/svg" width="59.075" height="23.875" viewBox="0 0 59.075 23.875">
  <path id="Shop" d="M8.825,28.225c3.55,0,6.175-2.275,6.175-5.275,0-3.375-2.1-4.575-6.075-5.2-3.65-.55-4.3-1.45-4.3-3.2,0-1.675,1.275-2.9,3.725-2.9,2.475,0,3.775.925,4.2,3.175H14.5C14.15,11.65,11.925,9.9,8.35,9.9,4.975,9.9,2.6,12,2.6,14.75c0,3.175,2.225,4.35,5.975,4.925,3.4.55,4.325,1.4,4.325,3.425s-1.775,3.375-4.075,3.375c-3.6,0-4.45-1.8-4.725-3.925H2C2.325,25.6,4.05,28.225,8.825,28.225ZM18.575,28H20.65V20.075A3.44,3.44,0,0,1,24.3,16.5c2.1,0,3.075,1.025,3.075,3.325V28H29.45V19.975c0-3.8-1.9-5.275-4.6-5.275a4.491,4.491,0,0,0-4.2,2.3V8.675H18.575Zm20.375.225A6.311,6.311,0,0,0,45.4,21.55v-.2a6.429,6.429,0,1,0-12.85.025v.2A6.321,6.321,0,0,0,38.95,28.225Zm.025-1.725c-2.65,0-4.275-1.95-4.275-4.925v-.2c0-3,1.65-4.95,4.275-4.95,2.6,0,4.275,1.95,4.275,4.975v.175C43.25,24.525,41.6,26.5,38.975,26.5Zm9.65,6.05H50.7v-6.7a4.956,4.956,0,0,0,4.425,2.375c3.6,0,5.95-2.75,5.95-6.75v-.2c0-4.075-2.525-6.575-5.95-6.575A5.377,5.377,0,0,0,50.7,17.125v-2.2H48.625Zm6.3-6.05c-2.55,0-4.3-1.575-4.3-4.925v-.2c0-3.35,1.85-4.95,4.275-4.95,2.2,0,4.025,1.65,4.025,4.95v.2C58.925,24.75,57.525,26.5,54.925,26.5Z" transform="translate(-2 -8.675)" fill="#fff"/>
</svg>
