<svg xmlns="http://www.w3.org/2000/svg" width="99.15" height="18.125" viewBox="0 0 99.15 18.125">
  <path id="Account" d="M.8,28H3.925l1.4-4.425H12.15L13.575,28h3.45l-5.9-17.875H6.775ZM8.75,12.85l2.625,8.3H6.1Zm16.075,15.4c3.55,0,5.825-2.125,6.05-5.125H28.1a2.977,2.977,0,0,1-3.15,2.8c-2.225,0-3.625-1.5-3.625-4.35v-.2c0-2.7,1.475-4.3,3.55-4.3a2.7,2.7,0,0,1,3,2.475H30.8c-.35-3.6-3.075-4.9-5.975-4.9a6.441,6.441,0,0,0-6.6,6.775v.2A6.251,6.251,0,0,0,24.825,28.25Zm14.375,0c3.55,0,5.825-2.125,6.05-5.125H42.475a2.977,2.977,0,0,1-3.15,2.8c-2.225,0-3.625-1.5-3.625-4.35v-.2c0-2.7,1.475-4.3,3.55-4.3a2.7,2.7,0,0,1,3,2.475h2.925c-.35-3.6-3.075-4.9-5.975-4.9a6.441,6.441,0,0,0-6.6,6.775v.2A6.251,6.251,0,0,0,39.2,28.25Zm14.475,0A6.43,6.43,0,0,0,60.4,21.525v-.2a6.425,6.425,0,0,0-6.7-6.675,6.465,6.465,0,0,0-6.725,6.75v.2A6.406,6.406,0,0,0,53.675,28.25ZM53.7,25.9c-2.3,0-3.625-1.675-3.625-4.35v-.2c0-2.7,1.375-4.325,3.625-4.325s3.6,1.65,3.6,4.35v.175C57.3,24.225,55.95,25.9,53.7,25.9Zm13.8,2.35a4.4,4.4,0,0,0,4.15-2.3V28h3.025V14.925H71.65V22.7a2.917,2.917,0,0,1-3.05,3.125c-1.75,0-2.575-.9-2.575-2.875V14.925H63V23.3C63,26.775,64.925,28.25,67.5,28.25ZM78.25,28h3.025V20.3a2.9,2.9,0,0,1,3.075-3.125c1.8,0,2.6.9,2.6,2.875V28h3.025V19.775c0-3.6-1.85-5.125-4.475-5.125A4.5,4.5,0,0,0,81.275,17V14.925H78.25Zm19.65.225a5.816,5.816,0,0,0,2.05-.325V25.5a3.716,3.716,0,0,1-1.475.25c-.95,0-1.5-.525-1.5-1.675V17.2H99.85V14.925H96.975V12.05H93.95v2.875H92.2V17.2h1.75v7.15C93.95,26.825,95.3,28.225,97.9,28.225Z" transform="translate(-0.8 -10.125)" fill="#fff"/>
</svg>
