<svg xmlns="http://www.w3.org/2000/svg" width="106.8" height="19.55" viewBox="0 0 106.8 19.55">
  <path id="Name" d="M7.538,28.225c2.725,0,4.95-1.5,4.95-5.075V10.125H10.313V23.05c0,2.4-1.125,3.4-2.9,3.4a5.506,5.506,0,0,1-2.375-.5v1.8A5.061,5.061,0,0,0,7.538,28.225Zm14.575,0a6.311,6.311,0,0,0,6.45-6.675v-.2a6.3,6.3,0,0,0-6.425-6.65,6.319,6.319,0,0,0-6.425,6.675v.2A6.321,6.321,0,0,0,22.113,28.225Zm.025-1.725c-2.65,0-4.275-1.95-4.275-4.925v-.2c0-3,1.65-4.95,4.275-4.95,2.6,0,4.275,1.95,4.275,4.975v.175C26.413,24.525,24.763,26.5,22.138,26.5Zm9.65,1.5h2.075V20.075a3.44,3.44,0,0,1,3.65-3.575c2.1,0,3.075,1.025,3.075,3.325V28h2.075V19.975c0-3.8-1.9-5.275-4.6-5.275a4.491,4.491,0,0,0-4.2,2.3V8.675H31.788Zm14.95,0h2.075V20.075a3.44,3.44,0,0,1,3.65-3.575c2.1,0,3.075,1.025,3.075,3.325V28h2.075V19.975c0-3.8-1.9-5.275-4.6-5.275a4.491,4.491,0,0,0-4.2,2.3V14.925H46.737Zm21.725,0h4.675c6.25,0,9.1-3.925,9.1-8.875V18.9c0-4.975-2.9-8.775-9.05-8.775H68.463Zm2.175-1.775V11.875h2.425c4.925,0,6.925,2.9,6.925,7.025v.2c0,4.375-2.3,7.125-6.9,7.125Zm20.5,2a6.311,6.311,0,0,0,6.45-6.675v-.2a6.429,6.429,0,1,0-12.85.025v.2A6.321,6.321,0,0,0,91.138,28.225Zm.025-1.725c-2.65,0-4.275-1.95-4.275-4.925v-.2c0-3,1.65-4.95,4.275-4.95,2.6,0,4.275,1.95,4.275,4.975v.175C95.438,24.525,93.788,26.5,91.163,26.5Zm15,1.725c2.95,0,5.125-1.375,5.575-4h-2.075c-.275,1.525-1.45,2.275-3.475,2.275-2.675,0-4.1-1.65-4.2-4.625h9.85V21.2c0-4.675-2.85-6.5-5.875-6.5-3.6,0-6.125,2.75-6.125,6.7v.2C99.838,25.625,102.463,28.225,106.162,28.225Zm-4.1-8.025c.35-2.325,1.775-3.775,3.9-3.775,2.15,0,3.55,1.075,3.75,3.775Z" transform="translate(-5.037 -8.675)" fill="#fff"/>
</svg>
