<svg id="AMS_Logo" data-name="AMS Logo" xmlns="http://www.w3.org/2000/svg" xmlns:xlink="http://www.w3.org/1999/xlink" width="95.875" height="123.595" viewBox="0 0 95.875 123.595">
  <defs>
    <linearGradient id="linear-gradient" y1="0.5" x2="1" y2="0.5" gradientUnits="objectBoundingBox">
      <stop offset="0" stop-color="#641cf5"/>
      <stop offset="0.96" stop-color="#ff20d6"/>
    </linearGradient>
    <linearGradient id="linear-gradient-2" x1="0.714" y1="0.513" x2="1.08" y2="0.536" gradientUnits="objectBoundingBox">
      <stop offset="0" stop-color="#003cb1"/>
      <stop offset="1" stop-color="#fff" stop-opacity="0"/>
    </linearGradient>
    <linearGradient id="linear-gradient-3" x1="1.37" y1="-0.012" x2="-0.331" y2="1.014" gradientUnits="objectBoundingBox">
      <stop offset="0" stop-color="#00bef5"/>
      <stop offset="1" stop-color="#5a38c6"/>
    </linearGradient>
    <linearGradient id="linear-gradient-4" x1="0.201" y1="0.895" x2="0.611" y2="0.077" gradientUnits="objectBoundingBox">
      <stop offset="0" stop-color="#fff"/>
      <stop offset="1" stop-color="#fff" stop-opacity="0"/>
    </linearGradient>
    <linearGradient id="linear-gradient-5" x1="0" y1="0.5" x2="1" y2="0.5" xlink:href="#linear-gradient"/>
    <linearGradient id="linear-gradient-6" x1="0.289" y1="0.503" x2="0.638" y2="0.494" xlink:href="#linear-gradient-2"/>
    <linearGradient id="linear-gradient-7" x1="0.853" y1="0.233" x2="0.267" y2="0.92" xlink:href="#linear-gradient-2"/>
    <linearGradient id="linear-gradient-8" x1="-0.088" y1="1.06" x2="0.854" y2="0.162" xlink:href="#linear-gradient"/>
    <linearGradient id="linear-gradient-9" x1="0.912" y1="-0.091" x2="0.175" y2="1.072" xlink:href="#linear-gradient-3"/>
  </defs>
  <g id="Layer_3" data-name="Layer 3">
    <g id="Accenture_Logo" data-name="Accenture Logo">
      <path id="Path_2617" data-name="Path 2617" d="M0,0V21.072L40.194,36.826,0,51.95v21.7l69.109-28.29v-17.3Z" fill="#a100ff"/>
    </g>
    <g id="Group_167" data-name="Group 167" transform="translate(3.688 55.226)">
      <path id="Path_2618" data-name="Path 2618" d="M98.635,215.773l-8.743,23.163-.143-23.163H72.933L60.11,262.66H72.485L80.724,234.1v.02l-.261,28.541H90.2l3.158-6.89,7.52-16.4v-.005l2.385-5.209-1.4,7.609v.005l-3.292,17.924h12.414l.627-6.263.942-9.419,1.172-11.679,1.661-16.56H98.638Z" transform="translate(-48.413 -215.77)" fill="url(#linear-gradient)"/>
      <path id="Path_2619" data-name="Path 2619" d="M98.635,215.773l-8.743,23.163-.143-23.163H72.933L60.11,262.66H72.485L80.724,234.1v.02l-.261,28.541H90.2l3.158-6.89,7.52-16.4v-.005l2.385-5.209-1.4,7.609v.005l-3.292,17.924h12.414l.627-6.263.942-9.419,1.172-11.679,1.661-16.56H98.638Z" transform="translate(-48.413 -215.77)" fill="url(#linear-gradient-2)" style="mix-blend-mode: multiply;isolation: isolate"/>
      <path id="Path_2620" data-name="Path 2620" d="M176.334,292.381a5.135,5.135,0,0,1,3.217-.906c.207,0,.41.005.622.015s.415.026.627.049a.034.034,0,0,1,.031.005c.154.01.31.026.463.049a3.648,3.648,0,0,1,.369.054c.108.015.218.031.325.054.143.02.287.054.438.079.261.054.527.118.793.187.148.038.3.079.458.123.218.064.443.128.665.2a25.952,25.952,0,0,1,5.145,2.391l2.321-12.163a36.491,36.491,0,0,0-6.767-2.173c-.75-.154-1.513-.287-2.291-.389-.223-.031-.453-.059-.681-.084a.594.594,0,0,0-.095-.01c-.171-.02-.34-.038-.512-.054-.241-.02-.479-.044-.719-.059-.256-.02-.512-.038-.768-.049-.171-.01-.335-.02-.512-.026l-.517-.015c-.3-.005-.607-.01-.916-.01-.484,0-.957.01-1.421.026-.084.005-.164.005-.246.01-.218.01-.438.02-.65.038-.292.015-.581.038-.863.064-.207.015-.41.038-.612.064-.276.026-.548.064-.814.1-.2.026-.4.059-.6.09-.235.038-.463.074-.686.118-.384.074-.763.154-1.129.241-.143.038-.282.069-.425.107-.325.084-.64.177-.952.271-.187.059-.374.118-.558.182-.148.049-.292.1-.438.154-.218.074-.438.159-.65.246a17.1,17.1,0,0,0-4.361,2.493,13.7,13.7,0,0,0-5.3,11.349,11.143,11.143,0,0,0,1.566,5.81,14.8,14.8,0,0,0,1.7,2.278c0,.005.005.005.01.01a35.741,35.741,0,0,0,4.011,3.791c1.006.819,1.863,1.566,2.583,2.242.207.2.4.384.581.566.09.09.182.177.266.266s.171.177.246.261.154.164.228.246.143.164.212.246.133.159.192.235c.005.005.01.01.01.015h.005c.118.148.223.287.32.42a6.892,6.892,0,0,1,.489.783,2.425,2.425,0,0,1,.154.3.148.148,0,0,1,.026.059,2.62,2.62,0,0,1,.133.3.2.2,0,0,1,.026.059c.031.074.059.154.09.235.044.128.079.256.113.384s.069.276.095.415a.065.065,0,0,0,.005.031,4.78,4.78,0,0,1,.069.832,3.779,3.779,0,0,1-1.438,3.125,6.093,6.093,0,0,1-3.888,1.149,17.324,17.324,0,0,1-5.767-1.06c-.251-.09-.5-.182-.75-.282s-.489-.2-.735-.31-.489-.218-.729-.335-.484-.235-.724-.361c-.182-.095-.356-.192-.537-.292-.474-.261-.947-.548-1.41-.852-.282-.187-.566-.379-.842-.576l-.138.65-1.218,5.746-.241,1.124-1.2,5.667a21.973,21.973,0,0,0,6.427,2.411,36.357,36.357,0,0,0,8.106.868c.3,0,.591-.005.878-.01.2,0,.4-.01.6-.015h.005q.361-.008.714-.031c.159-.005.315-.015.468-.026.276-.02.543-.038.809-.064.212-.015.425-.038.64-.064.261-.026.522-.059.778-.09.32-.044.635-.09.942-.138l.192-.031c.2-.038.4-.074.6-.107.463-.09.916-.192,1.364-.3l.543-.143c.187-.049.374-.1.553-.154.271-.079.532-.159.793-.251.177-.059.346-.118.517-.182.143-.049.282-.1.42-.159a1.164,1.164,0,0,0,.171-.064q.407-.161.8-.33a18.513,18.513,0,0,0,4.067-2.449A15.14,15.14,0,0,0,188,314.984c.005-.177.005-.351.005-.532a16.011,16.011,0,0,0-.228-2.721,12.483,12.483,0,0,0-1.213-3.6c-.123-.235-.261-.468-.42-.714a17.4,17.4,0,0,0-1.938-2.439,41.948,41.948,0,0,0-3.652-3.414l-.691-.591-.187-.159-.01-.01a.073.073,0,0,1-.015-.01c-.566-.479-1.07-.932-1.528-1.369-.154-.143-.3-.287-.438-.433-.069-.064-.128-.128-.187-.187-.207-.212-.4-.42-.581-.622-.241-.266-.453-.527-.645-.778a6.867,6.867,0,0,1-.484-.709,3.607,3.607,0,0,1-.64-1.827,2.933,2.933,0,0,1,1.188-2.475Z" transform="translate(-116.665 -263.3)" fill="url(#linear-gradient-3)"/>
      <path id="Path_2621" data-name="Path 2621" d="M238.761,282.5l-2.324,12.163a26.115,26.115,0,0,0-5.145-2.393,15.451,15.451,0,0,0-4.789-.816,5.154,5.154,0,0,0-3.22.906,2.946,2.946,0,0,0-1.188,2.475q0,2.123,4.525,5.946s-9.155-6.437-11.3-16.593a19.428,19.428,0,0,1-.381-2.849,26.749,26.749,0,0,1,10.043-1.712,34.418,34.418,0,0,1,7.01.7,36.742,36.742,0,0,1,6.767,2.173Z" transform="translate(-163.615 -263.285)" opacity="0.7" fill="url(#linear-gradient-4)" style="mix-blend-mode: overlay;isolation: isolate"/>
      <path id="Path_2622" data-name="Path 2622" d="M98.635,215.78l-8.743,23.163-.138-23.163H72.933L60.11,262.667H72.485l8.239-28.541v-.005l.005-.015-.266,28.564H90.2l3.148-6.9,7.51-16.455,3.041-6.673,7.689-16.859H98.638Z" transform="translate(-48.413 -215.777)" fill="url(#linear-gradient-5)"/>
      <path id="Path_2623" data-name="Path 2623" d="M98.635,215.78l-8.743,23.163-.138-23.163H72.933L60.11,262.667H72.485l8.239-28.541v-.005l.005-.015-.266,28.564H90.2l3.148-6.9,7.51-16.455,3.041-6.673,7.689-16.859H98.638Z" transform="translate(-48.413 -215.777)" fill="url(#linear-gradient-6)" style="mix-blend-mode: multiply;isolation: isolate"/>
      <path id="Path_2624" data-name="Path 2624" d="M178.152,415.471q-.392.169-.8.33a1.164,1.164,0,0,1-.171.064c-.138.059-.276.113-.42.159-.171.064-.34.123-.517.182-.261.09-.522.171-.793.251-.182.054-.369.107-.553.154l-.543.143c-.448.107-.9.207-1.364.3-.2.038-.394.069-.6.108l-.192.031c-.31.049-.622.095-.942.138-.256.031-.517.064-.778.09-.212.026-.425.049-.64.064-.266.026-.532.044-.809.064-.154.01-.31.02-.468.026q-.353.023-.714.031h-.005c-.2.005-.394.015-.6.015-.287.005-.581.01-.878.01a36.39,36.39,0,0,1-8.106-.868,22.09,22.09,0,0,1-6.427-2.411l1.2-5.667.241-1.124,1.218-5.746.138-.65c.276.2.558.389.842.576.463.3.937.591,1.41.852.182.1.356.2.538.292.241.128.479.251.724.361s.484.228.729.335.489.212.735.31.5.192.75.282a17.324,17.324,0,0,0,5.767,1.06,6.108,6.108,0,0,0,3.888-1.149,3.789,3.789,0,0,0,1.438-3.125,4.822,4.822,0,0,0-.069-.832.065.065,0,0,1-.005-.031c-.026-.138-.059-.276-.095-.415s-.069-.256-.113-.384c-.031-.079-.059-.159-.09-.235a.2.2,0,0,0-.026-.059,2.621,2.621,0,0,0-.133-.3.148.148,0,0,0-.026-.059,2.826,2.826,0,0,0-.154-.3,7.275,7.275,0,0,0-.489-.783c-.095-.133-.2-.271-.32-.42,0-.005-.005-.01-.015-.015-.059-.074-.123-.154-.192-.236s-.138-.159-.212-.246-.148-.159-.228-.246-.159-.171-.246-.261-.177-.182-.266-.266c-.182-.187-.374-.374-.581-.566l-.095-.095a26.6,26.6,0,0,1,1.966,1.884h.005c.489.512,1.034,1.119,1.607,1.81a33.178,33.178,0,0,1,3.056,4.361c.389.665.763,1.369,1.108,2.1a22.431,22.431,0,0,1,2.306,10.107Z" transform="translate(-116.665 -349.275)" fill="url(#linear-gradient-7)" style="mix-blend-mode: multiply;isolation: isolate"/>
      <path id="Path_2625" data-name="Path 2625" d="M85.336,215.78l-4.6,18.321L72.5,262.665H60.12L72.94,215.78Z" transform="translate(-48.421 -215.777)" fill="url(#linear-gradient-8)"/>
      <path id="Path_2626" data-name="Path 2626" d="M191.275,315.207a16.011,16.011,0,0,1,.228,2.721c0,.182,0,.356-.005.532a81.133,81.133,0,0,1-12.158,4.42c-1.746.489-3.547.932-5.383,1.326a89.411,89.411,0,0,1-17.417,2l.241-1.124L158,319.333c.325-.021.65-.049.98-.074a87.233,87.233,0,0,0,11.39-1.666q2.15-.465,4.218-1.011c.2-.054.394-.108.591-.159a76.709,76.709,0,0,0,14.464-5.529c13.734-6.975,21.843-17.12,19.954-26.555a16.47,16.47,0,0,1,2.5,3.258c1.833,9.276-6.565,19.941-20.821,27.609Z" transform="translate(-120.162 -266.789)" fill="#fff"/>
      <path id="Path_2627" data-name="Path 2627" d="M85.523,300.877a81.664,81.664,0,0,1-13.041,5.575c-1.006.33-2.025.65-3.061.952a88.067,88.067,0,0,1-18.393,3.345,59.942,59.942,0,0,1-21.96-2.114.073.073,0,0,1-.031-.01c-7-2.222-12.094-5.992-14.105-11.1a12.865,12.865,0,0,1-.522-1.689c.133.133.271.266.415.394,4.126,3.824,10.463,6.406,18.057,7.556,9.457,1.438,20.862.65,32.37-2.716q1.229-.361,2.429-.75h.005c.044-.015.084-.026.128-.044h.005a78.15,78.15,0,0,0,14.134-6.156c14.261-8.052,22.275-19.334,19.414-29.043a15.218,15.218,0,0,1,4.313,5.9,13.125,13.125,0,0,1,.665,2.278c1.833,9.276-6.565,19.941-20.821,27.609Z" transform="translate(-14.41 -252.459)" fill="url(#linear-gradient-9)"/>
    </g>
  </g>
</svg>
