<svg xmlns="http://www.w3.org/2000/svg" width="181.24" height="15.64" viewBox="0 0 181.24 15.64">
  <path id="Credit_or_Debit_Card" data-name="Credit or Debit Card" d="M7.78.18c3.2,0,5.48-1.62,5.98-4.92H12.14c-.36,2.32-1.98,3.5-4.32,3.5-3.08,0-4.92-2.2-4.92-5.84v-.16c0-3.6,1.98-5.9,4.94-5.9,2.44,0,3.7,1.12,4.06,3.3h1.72c-.3-3.1-2.82-4.68-5.8-4.68-3.88,0-6.72,3.06-6.72,7.3v.16C1.1-2.66,3.64.18,7.78.18ZM16.28,0h1.66V-5.74c0-2.58,1.34-3.24,3.44-3.34v-1.56a3.651,3.651,0,0,0-3.44,2.06v-1.88H16.28Zm11.5.18c2.36,0,4.1-1.1,4.46-3.2H30.58C30.36-1.8,29.42-1.2,27.8-1.2c-2.14,0-3.28-1.32-3.36-3.7h7.88v-.54c0-3.74-2.28-5.2-4.7-5.2-2.88,0-4.9,2.2-4.9,5.36v.16C22.72-1.9,24.82.18,27.78.18ZM24.5-6.24c.28-1.86,1.42-3.02,3.12-3.02,1.72,0,2.84.86,3,3.02ZM38.8.18A4.409,4.409,0,0,0,42.38-1.8V0h1.66V-15.46H42.38v6.68a3.747,3.747,0,0,0-3.42-1.86c-2.88,0-4.88,2.26-4.88,5.46v.16C34.08-1.76,36.06.18,38.8.18Zm.18-1.38c-1.76,0-3.18-1.26-3.18-3.9v-.16c0-2.54,1.24-4,3.32-4,2.04,0,3.32,1.26,3.32,3.94v.16C42.44-2.48,40.92-1.2,38.98-1.2Zm9.26-11.44a1.11,1.11,0,0,0,1.1-1.1,1.11,1.11,0,0,0-1.1-1.1,1.11,1.11,0,0,0-1.1,1.1A1.11,1.11,0,0,0,48.24-12.64ZM47.44,0H49.1V-10.46H47.44Zm8.24.14A3.956,3.956,0,0,0,57.1-.08v-1.4a3.417,3.417,0,0,1-1.28.22c-.84,0-1.3-.5-1.3-1.52V-9.06h2.44v-1.4H54.52v-2.38H52.86v2.38h-1.5v1.4h1.5v6.44A2.542,2.542,0,0,0,55.68.14ZM69.24.18A5.049,5.049,0,0,0,74.4-5.16v-.16a5.039,5.039,0,0,0-5.14-5.32A5.055,5.055,0,0,0,64.12-5.3v.16A5.057,5.057,0,0,0,69.24.18Zm.02-1.38c-2.12,0-3.42-1.56-3.42-3.94V-5.3c0-2.4,1.32-3.96,3.42-3.96,2.08,0,3.42,1.56,3.42,3.98v.14C72.68-2.78,71.36-1.2,69.26-1.2ZM76.98,0h1.66V-5.74c0-2.58,1.34-3.24,3.44-3.34v-1.56a3.651,3.651,0,0,0-3.44,2.06v-1.88H76.98ZM93.74.18A4.409,4.409,0,0,0,97.32-1.8V0h1.66V-15.46H97.32v6.68a3.747,3.747,0,0,0-3.42-1.86c-2.88,0-4.88,2.26-4.88,5.46v.16C89.02-1.76,91,.18,93.74.18Zm.18-1.38c-1.76,0-3.18-1.26-3.18-3.9v-.16c0-2.54,1.24-4,3.32-4,2.04,0,3.32,1.26,3.32,3.94v.16C97.38-2.48,95.86-1.2,93.92-1.2ZM106.62.18c2.36,0,4.1-1.1,4.46-3.2h-1.66c-.22,1.22-1.16,1.82-2.78,1.82-2.14,0-3.28-1.32-3.36-3.7h7.88v-.54c0-3.74-2.28-5.2-4.7-5.2-2.88,0-4.9,2.2-4.9,5.36v.16C101.56-1.9,103.66.18,106.62.18Zm-3.28-6.42c.28-1.86,1.42-3.02,3.12-3.02,1.72,0,2.84.86,3,3.02ZM118.9.18c2.88,0,4.76-2.2,4.76-5.4v-.16c0-3.26-2.02-5.26-4.76-5.26a4.3,4.3,0,0,0-3.54,1.94v-6.76H113.7V0h1.66V-1.72A3.989,3.989,0,0,0,118.9.18Zm-.16-1.38c-2.04,0-3.44-1.26-3.44-3.94V-5.3c0-2.68,1.48-3.96,3.42-3.96,1.76,0,3.22,1.32,3.22,3.96v.16C121.94-2.6,120.82-1.2,118.74-1.2Zm8.34-11.44a1.11,1.11,0,0,0,1.1-1.1,1.11,1.11,0,0,0-1.1-1.1,1.11,1.11,0,0,0-1.1,1.1A1.11,1.11,0,0,0,127.08-12.64ZM126.28,0h1.66V-10.46h-1.66Zm8.24.14a3.956,3.956,0,0,0,1.42-.22v-1.4a3.417,3.417,0,0,1-1.28.22c-.84,0-1.3-.5-1.3-1.52V-9.06h2.44v-1.4h-2.44v-2.38H131.7v2.38h-1.5v1.4h1.5v6.44A2.542,2.542,0,0,0,134.52.14Zm13.56.04a4.366,4.366,0,0,0,4.56-3.94H151.1a2.826,2.826,0,0,1-3,2.56c-2.02,0-3.42-1.36-3.42-3.92v-.16c0-2.46,1.46-3.98,3.36-3.98a2.611,2.611,0,0,1,2.9,2.28h1.64c-.32-2.66-2.36-3.66-4.54-3.66a5.083,5.083,0,0,0-5.08,5.36v.16A4.973,4.973,0,0,0,148.08.18Zm9.68,0a3.769,3.769,0,0,0,3.26-1.5V0h1.66V-6.9c0-2.92-1.82-3.74-3.82-3.74-2.02,0-3.92.88-4.14,3.26h1.66c.16-1.28.96-1.88,2.4-1.88,1.6,0,2.24.7,2.24,2.36v.76h-1.5c-2.68,0-5.24.82-5.24,3.24C154.28-.76,155.82.18,157.76.18Zm.16-1.32c-1.46,0-1.98-.68-1.98-1.76,0-1.54,1.54-2.06,3.64-2.06h1.44v1.3C161.02-2.04,159.68-1.14,157.92-1.14ZM165.94,0h1.66V-5.74c0-2.58,1.34-3.24,3.44-3.34v-1.56a3.651,3.651,0,0,0-3.44,2.06v-1.88h-1.66ZM177.1.18a4.409,4.409,0,0,0,3.58-1.98V0h1.66V-15.46h-1.66v6.68a3.747,3.747,0,0,0-3.42-1.86c-2.88,0-4.88,2.26-4.88,5.46v.16C172.38-1.76,174.36.18,177.1.18Zm.18-1.38c-1.76,0-3.18-1.26-3.18-3.9v-.16c0-2.54,1.24-4,3.32-4,2.04,0,3.32,1.26,3.32,3.94v.16C180.74-2.48,179.22-1.2,177.28-1.2Z" transform="translate(-1.1 15.46)" fill="#fff"/>
</svg>
