<svg xmlns="http://www.w3.org/2000/svg" xmlns:xlink="http://www.w3.org/1999/xlink" width="64" height="34" viewBox="0 0 64 34">
  <defs>
    <clipPath id="clip-path">
      <rect id="Rectangle_39" data-name="Rectangle 39" width="46" height="29" transform="translate(596 794)" fill="#fff"/>
    </clipPath>
  </defs>
  <g id="MASTERCARD" transform="translate(-806 -880)">
    <rect id="Rectangle_43" data-name="Rectangle 43" width="64" height="34" rx="5" transform="translate(806 880)" fill="#e5e5e5"/>
    <g id="Mastercard-2" data-name="Mastercard" transform="translate(219 89)" clip-path="url(#clip-path)">
      <g id="mastercard-6" transform="translate(594.074 783.696)">
        <path id="Path_1173" data-name="Path 1173" d="M0,0H49.829V49.829H0Z" fill="#fff" fill-rule="evenodd"/>
        <path id="Path_1174" data-name="Path 1174" d="M8.5,69.525H53.936V40.78H8.5Z" transform="translate(-6.306 -30.238)" fill="#1b3771" fill-rule="evenodd"/>
        <path id="Path_1175" data-name="Path 1175" d="M84.781,69.855a12.405,12.405,0,1,0-4.093-9.209,12.368,12.368,0,0,0,4.093,9.209Z" transform="translate(-59.83 -35.757)" fill="#e9b040" fill-rule="evenodd"/>
        <path id="Path_1176" data-name="Path 1176" d="M170.4,121.929a.391.391,0,0,1,.414-.39.385.385,0,0,1,.39.39.406.406,0,0,1-.39.414.411.411,0,0,1-.414-.414Zm.414.316a.319.319,0,0,0,.292-.317.3.3,0,0,0-.292-.292.3.3,0,0,0-.317.292A.322.322,0,0,0,170.814,122.245Zm-.073-.121h-.073v-.366h.146a.147.147,0,0,1,.1.024c.024.025.049.049.049.073,0,.049-.024.1-.073.1l.073.171h-.1l-.049-.146h-.073Zm0-.219h.1c.024,0,.024-.025.024-.049a.024.024,0,0,0-.024-.024h-.1Z" transform="translate(-126.35 -90.12)" fill="#e9b040" fill-rule="evenodd"/>
        <path id="Path_1177" data-name="Path 1177" d="M41,59.333a12.36,12.36,0,0,0-.219-1.315h-7.6a13.209,13.209,0,0,1,.366-1.316h6.87q-.224-.67-.512-1.316H34.062q.337-.673.731-1.316h4.385a8.184,8.184,0,0,0-.95-1.315H35.743a12.6,12.6,0,0,1,1.242-1.315,12.424,12.424,0,1,0,0,18.417,16.147,16.147,0,0,0,1.267-1.315H35.743a12.973,12.973,0,0,1-.95-1.315h4.385a11.462,11.462,0,0,0,.731-1.316H34.062a10.54,10.54,0,0,1-.512-1.315h6.87a13.357,13.357,0,0,0,.366-1.316A12.44,12.44,0,0,0,41,61.964a11.874,11.874,0,0,0,0-2.631Z" transform="translate(-12.034 -35.758)" fill="#cc2131" fill-rule="evenodd"/>
        <path id="Path_1178" data-name="Path 1178" d="M170.4,106.286a.391.391,0,0,1,.414-.39.385.385,0,0,1,.39.39.406.406,0,0,1-.39.414.411.411,0,0,1-.414-.414Zm.414.317a.319.319,0,0,0,.292-.317.3.3,0,0,0-.292-.292.3.3,0,0,0-.317.292A.323.323,0,0,0,170.814,106.6Zm-.073-.122h-.073v-.366h.146a.147.147,0,0,1,.1.024c.024.025.049.049.049.073,0,.049-.024.1-.073.1l.073.171h-.1l-.049-.146h-.073Zm0-.219h.1c.024,0,.024-.025.024-.049a.024.024,0,0,0-.024-.024h-.1Z" transform="translate(-126.35 -78.521)" fill="#fff" fill-rule="evenodd"/>
        <path id="Path_1179" data-name="Path 1179" d="M35.078,91.9a3.442,3.442,0,0,1-1.023.171.978.978,0,0,1-1.023-1.121,3.331,3.331,0,0,1,.049-.462L33.153,90l.073-.415.585-3.508H35.1l-.146.779h.8l-.195,1.291h-.8L34.4,90.243c0,.073-.024.146-.024.195,0,.268.146.39.463.39a2.128,2.128,0,0,0,.414-.049Zm4.166-.049a4.586,4.586,0,0,1-1.389.22,2.068,2.068,0,0,1-2.29-2.29c0-1.754,1-3.069,2.363-3.069a1.721,1.721,0,0,1,1.8,1.876,5.522,5.522,0,0,1-.17,1.267h-2.68V90c0,.609.39.9,1.169.9a3.306,3.306,0,0,0,1.413-.317l-.219,1.266Zm-.8-3.045v-.243a.6.6,0,0,0-.633-.658c-.438,0-.731.317-.853.9H38.44ZM24.773,91.973h-1.34l.78-4.848-1.73,4.848h-.925l-.1-4.823-.829,4.823H19.341l1.047-6.31h1.924l.073,3.9,1.291-3.9h2.144Zm3.24-2.29c-.146,0-.171-.024-.268-.024-.755,0-1.145.292-1.145.78a.475.475,0,0,0,.487.536C27.745,90.975,27.989,90.438,28.013,89.683Zm1.072,2.29H27.916l.024-.536a1.523,1.523,0,0,1-1.413.634,1.289,1.289,0,0,1-1.194-1.413,2.674,2.674,0,0,1,.1-.657c.219-.8,1.023-1.292,2.241-1.316a5.107,5.107,0,0,1,.584.024,1.02,1.02,0,0,0,.049-.341c0-.341-.268-.438-.9-.438a5.216,5.216,0,0,0-1.121.146l-.17.073h-.1L26.211,87a4.981,4.981,0,0,1,1.559-.268c1.169,0,1.778.512,1.778,1.51a4.265,4.265,0,0,1-.073,1l-.268,1.827-.049.317-.049.268v.171l-.025.147Zm16.638-5.067a2.564,2.564,0,0,1,1.194.341l.219-1.389c-.122-.049-.146-.049-.317-.122l-.56-.122a2.2,2.2,0,0,0-.609-.073,2.43,2.43,0,0,0-1.462.268,3.263,3.263,0,0,0-.8.658l-.146-.049-1.388.975.073-.536H40.486l-.8,5.116h1.34l.487-2.753a4.624,4.624,0,0,1,.292-.512.754.754,0,0,1,.731-.317h.1c-.024.292-.049.634-.049.975,0,1.681.95,2.729,2.412,2.729a3.767,3.767,0,0,0,1.169-.195l.243-1.438a2.542,2.542,0,0,1-1.145.317c-.78,0-1.243-.56-1.243-1.535C44.018,87.88,44.7,86.906,45.724,86.906ZM57.1,85.664l-.292,1.8a1.368,1.368,0,0,0-1.218-.706A2.024,2.024,0,0,0,53.811,87.9l-.853-.512.073-.536H51.594l-.828,5.116H52.13l.438-2.753s.341-.39.439-.512a.751.751,0,0,1,.585-.317,4.784,4.784,0,0,0-.244,1.511c0,1.291.682,2.143,1.657,2.143a1.552,1.552,0,0,0,1.243-.584l-.073.512h1.291l1.023-6.31H57.1Zm-1.632,5.091c-.463,0-.682-.317-.682-1,0-1,.414-1.729,1.047-1.729.463,0,.707.365.707,1.023C56.54,90.049,56.1,90.755,55.468,90.755Zm-6.212-1.072c-.146,0-.17-.024-.268-.024-.755,0-1.145.292-1.145.78a.475.475,0,0,0,.487.536C48.988,90.975,49.231,90.438,49.256,89.683Zm1.072,2.29H49.159l.024-.536a1.524,1.524,0,0,1-1.413.634,1.31,1.31,0,0,1-1.242-1.413c.024-1.218.925-1.973,2.387-1.973a5.111,5.111,0,0,1,.585.024,1.015,1.015,0,0,0,.049-.341c0-.341-.268-.438-.9-.438a5.012,5.012,0,0,0-1.12.146l-.195.073h-.073L47.453,87a4.983,4.983,0,0,1,1.559-.268c1.169,0,1.778.512,1.778,1.51a4.265,4.265,0,0,1-.073,1l-.268,1.827-.049.317-.049.268-.025.171Zm-18.441-4.02a8.69,8.69,0,0,1,1.023.073l.195-1.194a11.659,11.659,0,0,0-1.218-.1c-1.486,0-2,.8-2,1.754a1.444,1.444,0,0,0,1,1.388c.56.268.658.317.658.536,0,.317-.292.512-.828.512a4.358,4.358,0,0,1-1.194-.195L29.378,91.9H29.4l.244.049a1.131,1.131,0,0,0,.341.049,5.222,5.222,0,0,0,.779.049c1.486,0,2.12-.56,2.12-1.705a1.424,1.424,0,0,0-1.023-1.413c-.56-.268-.633-.292-.633-.536S31.473,87.954,31.887,87.954Z" transform="translate(-14.341 -63.429)" fill="#1b3771" fill-rule="evenodd"/>
        <path id="Path_1180" data-name="Path 1180" d="M48.62,84.351l-.22,1.364a2.566,2.566,0,0,0-1.194-.341c-1.023,0-1.729.975-1.729,2.363,0,.95.487,1.535,1.266,1.535a2.544,2.544,0,0,0,1.145-.317l-.243,1.438a4.537,4.537,0,0,1-1.194.171c-1.438,0-2.339-1.023-2.339-2.7,0-2.266,1.242-3.824,3.02-3.824a4.12,4.12,0,0,1,.609.049l.56.146C48.474,84.3,48.5,84.3,48.62,84.351Zm-4.312.95a.31.31,0,0,0-.146-.024c-.438,0-.682.219-1.1.828l.122-.78H41.946l-.8,5.14h1.34c.487-3.142.609-3.679,1.267-3.679h.1a4.626,4.626,0,0,1,.512-1.486h-.049Zm-7.771,5.091a2.938,2.938,0,0,1-.975.171.99.99,0,0,1-1.072-1.121,3.331,3.331,0,0,1,.049-.462l.073-.512.073-.39.585-3.508h1.34l-.146.755h.682l-.195,1.267h-.682l-.366,2.12c0,.1-.024.171-.024.219,0,.268.146.39.463.39a1.312,1.312,0,0,0,.366-.049l-.171,1.121Zm-5.189-3.435a1.476,1.476,0,0,0,1.023,1.413c.56.268.633.341.633.585,0,.317-.244.463-.78.463a3.66,3.66,0,0,1-1.194-.219l-.195,1.194h.073l.244.049a1.13,1.13,0,0,0,.341.049c.317.024.585.049.755.049,1.413,0,2.071-.536,2.071-1.705a1.409,1.409,0,0,0-.95-1.438c-.56-.243-.633-.316-.633-.536q0-.439.658-.438a7.708,7.708,0,0,1,.974.1l.195-1.194a10.3,10.3,0,0,0-1.194-.1c-1.51,0-2.022.78-2.022,1.73Zm27.576,3.508H57.634l.073-.512a1.6,1.6,0,0,1-1.243.56c-.974,0-1.632-.828-1.632-2.119,0-1.705,1-3.143,2.192-3.143a1.51,1.51,0,0,1,1.291.706l.292-1.8h1.34l-1.023,6.31Zm-2-1.218c.634,0,1.072-.706,1.072-1.729,0-.634-.243-1-.706-1-.609,0-1.048.706-1.048,1.729C56.244,88.907,56.464,89.248,56.927,89.248Zm-16.273,1.1a4.482,4.482,0,0,1-1.388.219,2.047,2.047,0,0,1-2.29-2.29c0-1.778,1-3.069,2.363-3.069a1.721,1.721,0,0,1,1.8,1.876A6.964,6.964,0,0,1,41,88.346h-2.68a.36.36,0,0,0-.025.146c0,.585.39.9,1.194.9a3.281,3.281,0,0,0,1.389-.317ZM39.9,87.3v-.268a.584.584,0,0,0-.633-.658c-.414,0-.731.341-.853.925ZM26.233,90.466h-1.34l.779-4.848-1.73,4.848h-.925l-.1-4.823-.828,4.823H20.849l1.047-6.31h1.924l.073,3.9,1.291-3.9H27.28Zm3.337-2.29a1.622,1.622,0,0,0-.317-.024c-.755,0-1.145.268-1.145.78a.487.487,0,0,0,.487.536c.56,0,.95-.536.975-1.292Zm.974,2.29H29.424l.025-.536a1.679,1.679,0,0,1-1.413.609,1.241,1.241,0,0,1-1.218-1.388c0-1.242.853-1.973,2.363-1.973a4.331,4.331,0,0,1,.536.024.834.834,0,0,0,.049-.316c0-.341-.219-.463-.853-.463a3.906,3.906,0,0,0-1.121.146l-.195.049-.122.024L27.67,85.5a5.5,5.5,0,0,1,1.608-.268c1.169,0,1.778.512,1.778,1.486a5.433,5.433,0,0,1-.122,1.023l-.268,1.827-.049.317-.025.268-.024.171-.024.147Zm20.268-2.29a1.619,1.619,0,0,0-.317-.024c-.755,0-1.145.268-1.145.78a.488.488,0,0,0,.487.536c.536,0,.95-.536.975-1.292Zm.974,2.29h-1.12l.024-.536a1.71,1.71,0,0,1-1.413.609,1.258,1.258,0,0,1-1.242-1.388c0-1.242.877-1.973,2.387-1.973a4.325,4.325,0,0,1,.536.024.83.83,0,0,0,.049-.316c0-.341-.219-.463-.853-.463a3.9,3.9,0,0,0-1.12.146l-.195.049-.122.024.195-1.145a5.5,5.5,0,0,1,1.608-.268c1.169,0,1.778.512,1.778,1.486a5.425,5.425,0,0,1-.122,1.023l-.268,1.827-.049.317-.049.268-.024.171v.147h0ZM55.392,85.3a.184.184,0,0,0-.122-.024c-.438,0-.706.219-1.12.828l.122-.78H53.054l-.829,5.14h1.364c.463-3.142.609-3.679,1.243-3.679h.1a5.3,5.3,0,0,1,.512-1.486h-.049Z" transform="translate(-15.459 -62.311)" fill="#fff" fill-rule="evenodd"/>
      </g>
    </g>
  </g>
</svg>
