<svg xmlns="http://www.w3.org/2000/svg" width="64" height="34" viewBox="0 0 64 34">
  <g id="AMEX" transform="translate(-645 -757)">
    <rect id="Rectangle_44" data-name="Rectangle 44" width="64" height="34" rx="5" transform="translate(645 757)" fill="#e5e5e5"/>
    <g id="american-express-1" transform="translate(662.174 758.674)">
      <path id="Path_1181" data-name="Path 1181" d="M0,0H30.652V30.652H0Z" fill="#fff" fill-rule="evenodd"/>
      <path id="Path_1182" data-name="Path 1182" d="M4.772,39.528H4.684c0-.044-.022-.11-.022-.132s0-.066-.066-.066H4.465v.2H4.4v-.461h.2c.088,0,.153.022.153.11a.129.129,0,0,1-.044.11.114.114,0,0,1,.044.088v.088c0,.022,0,.022.022.022v.044ZM4.684,39.2c0-.066-.044-.066-.066-.066H4.465v.132H4.6C4.64,39.265,4.684,39.243,4.684,39.2Zm.373.088a.492.492,0,0,0-.5-.483.487.487,0,0,0-.483.483.494.494,0,1,0,.987,0Zm-.066,0a.422.422,0,0,1-.439.417.4.4,0,0,1-.417-.417.417.417,0,0,1,.417-.417A.436.436,0,0,1,4.991,39.287Zm27.026-8.862c0,.658-.417.965-1.163.965H29.429v-.658h1.426a.455.455,0,0,0,.285-.066.279.279,0,0,0,.088-.2.334.334,0,0,0-.088-.219.381.381,0,0,0-.263-.066c-.68-.022-1.536.022-1.536-.943a.925.925,0,0,1,1.053-.922h1.47v.658H30.5a.52.52,0,0,0-.285.044.314.314,0,0,0-.11.241.239.239,0,0,0,.153.22,1.122,1.122,0,0,0,.285.044h.395a1.244,1.244,0,0,1,.856.241A.948.948,0,0,1,32.018,30.424Zm-3.093-.658a1.244,1.244,0,0,0-.856-.241h-.395a1.125,1.125,0,0,1-.285-.044.239.239,0,0,1-.153-.22.257.257,0,0,1,.11-.241.52.52,0,0,1,.285-.044h1.36v-.658h-1.47c-.79,0-1.053.483-1.053.922,0,.965.856.921,1.536.943a.38.38,0,0,1,.263.066.335.335,0,0,1,.088.219.279.279,0,0,1-.088.2.5.5,0,0,1-.285.066H26.555v.658h1.426c.746,0,1.163-.307,1.163-.965A.946.946,0,0,0,28.925,29.766Zm-2.808.987H24.384v-.614h1.689v-.614H24.384v-.571h1.733v-.636H23.66v3.071h2.457v-.636ZM22.87,28.472a1.841,1.841,0,0,0-.9-.154H20.282v3.071h.746V30.27h.79c.263,0,.417.022.527.132a.979.979,0,0,1,.132.614v.373H23.2V30.8a1.012,1.012,0,0,0-.11-.57.855.855,0,0,0-.373-.263.845.845,0,0,0,.527-.812A.689.689,0,0,0,22.87,28.472ZM18.7,28.318H16.355l-.943,1.009-.9-1.009H11.551v3.071h2.918l.943-1.009.9,1.009h1.426V30.358h.921c.636,0,1.272-.176,1.272-1.031,0-.834-.658-1.009-1.229-1.009Zm3.576,1.272a.911.911,0,0,1-.351.044l-.9.022v-.7h.9a.6.6,0,0,1,.351.066.279.279,0,0,1,.153.263A.383.383,0,0,1,22.278,29.591Zm-3.576.153h-.965v-.79H18.7c.263,0,.439.11.439.373A.4.4,0,0,1,18.7,29.744Zm-2.83.11,1.141-1.206v2.479Zm-1.777.9H12.274v-.614H13.9v-.614H12.274v-.571h1.843l.812.9-.834.9ZM29.977,26.1H28.925l-1.382-2.3v2.3H26.051l-.285-.68H24.23l-.285.68h-.856a1.587,1.587,0,0,1-1.075-.351,1.606,1.606,0,0,1-.373-1.163,1.586,1.586,0,0,1,.395-1.206,1.489,1.489,0,0,1,1.119-.351h.7v.658h-.7a.776.776,0,0,0-.57.176.994.994,0,0,0-.2.7,1.1,1.1,0,0,0,.2.724.732.732,0,0,0,.5.153h.329l1.053-2.413h1.1l1.228,2.9v-2.9h1.141l1.294,2.128V23.031h.746V26.1h0Zm-8.709-3.071h-.746V26.1h.746V23.031Zm-1.558.132a1.765,1.765,0,0,0-.877-.132H17.144V26.1h.724V24.984h.79a.752.752,0,0,1,.548.132.932.932,0,0,1,.11.592V26.1h.746v-.614a.819.819,0,0,0-.131-.548.918.918,0,0,0-.351-.263.871.871,0,0,0,.527-.812A.76.76,0,0,0,19.711,23.163Zm-3.093,2.3H14.907v-.614H16.6v-.636H14.907v-.548h1.711v-.636H14.161V26.1h2.457v-.636Zm-3.005-2.435H12.406l-.9,2.084-.965-2.084H9.357v2.9l-1.25-2.9H7.01L5.693,26.1h.79l.285-.68H8.3l.285.68h1.492V23.69L11.156,26.1h.636l1.075-2.413V26.1h.746V23.031h0ZM25.5,24.764,25,23.558l-.5,1.206Zm-6.362-.482a.67.67,0,0,1-.373.066h-.9v-.68h.9a.969.969,0,0,1,.373.044.326.326,0,0,1,.132.285A.3.3,0,0,1,19.141,24.282Zm-12.109.482.5-1.206.5,1.206ZM31.842,13.4H5.671V24.457l.9-2.04H8.479l.263.5v-.5H10.98l.5,1.1.483-1.1H19.1a1.3,1.3,0,0,1,.834.241v-.241h1.952v.241a2.613,2.613,0,0,1,1.228-.241h2.83l.263.5v-.5h2.084l.307.5v-.5h2.04v4.3H28.574l-.395-.658v.658H25.612l-.285-.7h-.636l-.285.7H23.068a2.629,2.629,0,0,1-1.185-.263v.263H18.7V25.73c0-.132-.022-.154-.11-.154h-.11v1.141H12.34v-.548l-.219.548H10.827l-.219-.527v.527H8.128l-.263-.7H7.229l-.285.7H5.671V39.682H31.842V31.806a2.686,2.686,0,0,1-1.075.2H28.859V31.74a1.692,1.692,0,0,1-.987.263H21.861v-.987c0-.132-.022-.132-.132-.132h-.11V32H19.645V30.841a2.413,2.413,0,0,1-1.031.153h-.219V32H15.982l-.57-.658L14.775,32H10.892V27.7h3.949l.57.658.614-.658H18.68a1.655,1.655,0,0,1,1.031.263V27.7H22.08a1.876,1.876,0,0,1,1.009.263V27.7h3.576v.263a1.459,1.459,0,0,1,.9-.263h2v.263a1.586,1.586,0,0,1,.922-.263h1.36Z" transform="translate(-3.423 -11.27)" fill="#0077a6" fill-rule="evenodd"/>
    </g>
  </g>
</svg>
