<svg xmlns="http://www.w3.org/2000/svg" width="64" height="34" viewBox="0 0 64 34">
  <g id="DINERS" transform="translate(-734 -757)">
    <rect id="Rectangle_45" data-name="Rectangle 45" width="64" height="34" rx="5" transform="translate(734 757)" fill="#e5e5e5"/>
    <g id="diners-club-international" transform="translate(751.075 759.074)">
      <path id="Path_1183" data-name="Path 1183" d="M0,0H30.187V30.187H0Z" fill="#fff" fill-rule="evenodd"/>
      <path id="Path_1184" data-name="Path 1184" d="M2.834,32.315V3.1h29.3V32.315H2.834Zm29.091-.208V3.306H3.042v28.8Z" transform="translate(-2.39 -2.613)" fill-rule="evenodd"/>
      <path id="Path_1185" data-name="Path 1185" d="M39.038,18.1a8.434,8.434,0,0,0-1.473-2.977,9.092,9.092,0,0,0-2.441-2.162,10.123,10.123,0,0,0-2.507-1.082,4.426,4.426,0,0,0-1.478-.1h-9.7a4.193,4.193,0,0,0-1.2.167,11.754,11.754,0,0,0-2.727,1.007,8.052,8.052,0,0,0-2.5,2.167,8.531,8.531,0,0,0-.621,9.454,8.239,8.239,0,0,0,2.2,2.484,10.563,10.563,0,0,0,2.748,1.422,6.138,6.138,0,0,0,2.1.4h9.7a6.138,6.138,0,0,0,2.1-.4,10.562,10.562,0,0,0,2.748-1.422,8.245,8.245,0,0,0,2.2-2.484,8.531,8.531,0,0,0,.851-6.47Zm-9.43,4.305a8.113,8.113,0,1,1,.208-3.158A8.146,8.146,0,0,1,29.608,22.407Z" transform="translate(-11.175 -9.918)" fill="#383e93" fill-rule="evenodd"/>
      <path id="Path_1186" data-name="Path 1186" d="M41.191,42.179A4.347,4.347,0,0,0,42.466,49V41.216a4.395,4.395,0,0,0-1.275.963Zm6.4-.023a4.393,4.393,0,0,0-1.3-.96V49.02a4.346,4.346,0,0,0,1.3-6.864Z" transform="translate(-33.782 -34.744)" fill="#383e93" fill-rule="evenodd"/>
      <path id="Path_1187" data-name="Path 1187" d="M21.113,134.876a1.112,1.112,0,0,0-.863-.347H19.39v2.747h.861a1.2,1.2,0,0,0,.89-.4,1.466,1.466,0,0,0,.308-.987A1.639,1.639,0,0,0,21.113,134.876Zm-.383,1.6a.669.669,0,0,1-.5.219h-.246v-1.526h.246a.623.623,0,0,1,.482.192.906.906,0,0,1,.188.566A.812.812,0,0,1,20.73,136.473Zm1.64.8v-2.747h-.584v2.747Zm1.945-1.018v-1.729H24.9v2.747h-.651l-.867-1.7v1.7H22.8v-2.747h.638l.88,1.729Zm2.362.427,0,.594H25.255v-2.742h1.424l0,.576h-.833v.494h.833v.584h-.833v.494Zm.964.59h-.558l0-2.747h.954a.752.752,0,0,1,.411.115.831.831,0,0,1,.345.408,1.134,1.134,0,0,1,.025.6.855.855,0,0,1-.215.411.944.944,0,0,1-.335.233l.679.98h-.611l-.577-.824-.117,0v.824Zm0-1.509h.383a.251.251,0,0,0,.227-.162.511.511,0,0,0,0-.365.254.254,0,0,0-.227-.167h-.383Zm2.832-.417a1.019,1.019,0,0,0-.1-.535.578.578,0,0,0-.347-.293.8.8,0,0,0-.512.01.731.731,0,0,0-.393.357.951.951,0,0,0-.076.529.752.752,0,0,0,.184.415,1.037,1.037,0,0,0,.382.261,2.5,2.5,0,0,1,.38.141.246.246,0,0,1,.117.271.346.346,0,0,1-.264.226.453.453,0,0,1-.343-.112.212.212,0,0,1-.081-.219h-.466a.838.838,0,0,0,.08.445.774.774,0,0,0,.289.311.845.845,0,0,0,.4.122,1.156,1.156,0,0,0,.426-.058.589.589,0,0,0,.311-.233.943.943,0,0,0,.176-.522.874.874,0,0,0-.213-.573,1.143,1.143,0,0,0-.469-.276,1.234,1.234,0,0,1-.334-.149.245.245,0,0,1-.1-.224.263.263,0,0,1,.144-.18.259.259,0,0,1,.2-.011.173.173,0,0,1,.108.106.4.4,0,0,1,.023.189h.48Zm3.841,0h-.626a.839.839,0,0,0-.232-.208.775.775,0,0,0-.587-.089.794.794,0,0,0-.277.13.851.851,0,0,0-.214.231.9.9,0,0,0-.008.934.844.844,0,0,0,.21.236.775.775,0,0,0,.862.06.828.828,0,0,0,.235-.2h.631a1.46,1.46,0,0,1-.273.439,1.354,1.354,0,0,1-.4.3,1.3,1.3,0,0,1-.96.078,1.334,1.334,0,0,1-.439-.234,1.416,1.416,0,0,1-.334-.389,1.512,1.512,0,0,1-.178-1.025,1.46,1.46,0,0,1,.184-.489,1.42,1.42,0,0,1,.339-.384,1.3,1.3,0,0,1,1.4-.14,1.367,1.367,0,0,1,.4.309A1.457,1.457,0,0,1,34.314,135.35Zm1.563,1.331v.6H34.6v-2.769h.519l0,2.174Zm.24-.453v-1.664h.519l0,1.735a.451.451,0,0,0,.2.366.367.367,0,0,0,.385-.009.455.455,0,0,0,.224-.357l0-1.735h.519V136.2a1.1,1.1,0,0,1-.413.956.915.915,0,0,1-1.437-.93Zm3.8.01a.617.617,0,0,0-.381-.463.483.483,0,0,0,.22-.356.877.877,0,0,0-.1-.6.677.677,0,0,0-.543-.313h-.8v2.742h.8a.813.813,0,0,0,.644-.3.934.934,0,0,0,.162-.717Zm-1.07-1.152h.228a.175.175,0,0,1,.171.083.3.3,0,0,1,0,.252.173.173,0,0,1-.171.078h-.228v-.414Zm.514,1.45a.207.207,0,0,1-.205.1h-.308v-.507h.308a.209.209,0,0,1,.206.1.379.379,0,0,1,0,.309Zm-21.811,4.2V137.99h-.584v2.747Zm2-1.018V137.99h.584v2.747h-.651l-.866-1.7v1.7h-.584V137.99h.638Zm.767-1.215v-.519H21.7v.519h-.4v2.232h-.584V138.5Zm3.032,1.642,0,.594H21.927V138h1.424l0,.576h-.833v.494h.833v.584h-.833v.494Zm.951.591h-.558l0-2.747h.954a.751.751,0,0,1,.411.115.831.831,0,0,1,.345.408,1.133,1.133,0,0,1,.025.6.855.855,0,0,1-.215.411.942.942,0,0,1-.335.233l.679.98h-.611l-.577-.824-.117,0v.824h0Zm0-1.509h.383a.251.251,0,0,0,.227-.162.511.511,0,0,0,0-.365.254.254,0,0,0-.227-.167H24.3v.693Zm2.969.491V137.99h.584v2.747H27.2l-.867-1.7v1.7h-.584V137.99h.638Zm1.647.263-.238.755h-.584l.865-2.747h.63l.865,2.747h-.584l-.238-.755Zm.358-1.137-.182.578h.364l-.182-.578Zm1.278-.341v-.519h1.384v.519h-.4v2.232h-.584V138.5Zm2.279,2.232V137.99h-.584v2.747Zm3.03-1.864a1.5,1.5,0,0,0-.2-.413,1.435,1.435,0,0,0-.316-.327,1.315,1.315,0,0,0-1.21-.2,1.359,1.359,0,0,0-.386.2,1.435,1.435,0,0,0-.317.327,1.509,1.509,0,0,0-.27.865,1.564,1.564,0,0,0,.068.456,1.512,1.512,0,0,0,.2.417,1.446,1.446,0,0,0,.316.328,1.313,1.313,0,0,0,1.212.2,1.359,1.359,0,0,0,.386-.2,1.445,1.445,0,0,0,.315-.328,1.544,1.544,0,0,0,.2-1.324Zm-.65.978a.871.871,0,0,1-.189.2.8.8,0,0,1-.231.121.783.783,0,0,1-.725-.121.858.858,0,0,1-.189-.2.9.9,0,0,1-.121-.25.915.915,0,0,1,.121-.793.869.869,0,0,1,.189-.2.81.81,0,0,1,.231-.121.784.784,0,0,1,.724.121.87.87,0,0,1,.189.2.9.9,0,0,1,.121.248A.923.923,0,0,1,35.212,139.851Zm2.519-.131V137.99h.584v2.747h-.651l-.867-1.7v1.7h-.585V137.99h.638Zm1.687.263-.238.755H38.6l.865-2.747h.63l.865,2.747h-.584l-.238-.755h-.716Zm.358-1.137-.182.578h.364Zm2.715,1.9v-.519h-.609l0-2.236h-.585v2.756Z" transform="translate(-14.31 -113.401)" fill-rule="evenodd"/>
    </g>
  </g>
</svg>
