<svg xmlns="http://www.w3.org/2000/svg" xmlns:xlink="http://www.w3.org/1999/xlink" width="64" height="34" viewBox="0 0 64 34">
  <defs>
    <clipPath id="clip-path">
      <rect id="Rectangle_47" data-name="Rectangle 47" width="50" height="30" transform="translate(903.938 770.963)" fill="red"/>
    </clipPath>
  </defs>
  <g id="MAESTRO" transform="translate(-823 -757)">
    <rect id="Rectangle_46" data-name="Rectangle 46" width="64" height="34" rx="5" transform="translate(823 757)" fill="#e5e5e5"/>
    <g id="Maestro-2" data-name="Maestro" transform="translate(-73.938 -11.963)" clip-path="url(#clip-path)">
      <g id="maestro-2-2" data-name="maestro-2" transform="translate(903.771 760.797)">
        <path id="Path_1189" data-name="Path 1189" d="M27.261,65.63a14.8,14.8,0,0,0,0-21.827,14.5,14.5,0,0,0-9.811-3.811,14.725,14.725,0,0,0,0,29.449A14.5,14.5,0,0,0,27.261,65.63Z" transform="translate(-2.094 -29.549)" fill="#3a9bd9" fill-rule="evenodd"/>
        <path id="Path_1190" data-name="Path 1190" d="M93.525,39.992A14.5,14.5,0,0,0,83.714,43.8a14.819,14.819,0,0,0-1.476,1.559h2.95A14.776,14.776,0,0,1,86.3,46.921h-5.18a14.8,14.8,0,0,0-.843,1.559h6.864a14.7,14.7,0,0,1,.62,1.559h-8.1a14.7,14.7,0,0,0-.424,1.559H88.19a14.912,14.912,0,0,1-.424,7.795h-8.1a14.6,14.6,0,0,0,.619,1.559h6.864a14.737,14.737,0,0,1-.842,1.559H81.124a14.776,14.776,0,0,0,1.114,1.559h2.95a14.735,14.735,0,0,1-1.475,1.559,14.5,14.5,0,0,0,9.811,3.811,14.725,14.725,0,0,0,0-29.449Z" transform="translate(-58.547 -29.549)" fill="#cc2131" fill-rule="evenodd"/>
        <path id="Path_1191" data-name="Path 1191" d="M182.469,126.465a.472.472,0,1,1,.472.475A.474.474,0,0,1,182.469,126.465Zm.472.361a.361.361,0,1,0-.359-.361A.36.36,0,0,0,182.941,126.826Zm-.064-.152h-.1v-.418h.175a.19.19,0,0,1,.106.021.125.125,0,0,1,.053.1.115.115,0,0,1-.072.108l.076.184h-.108l-.063-.165h-.071v-.071h.054a.121.121,0,0,0,.059-.009.057.057,0,0,0,.025-.048.053.053,0,0,0-.023-.042.129.129,0,0,0-.062-.008h-.051v.343Z" transform="translate(-134.821 -93.09)" fill="#cc2131" fill-rule="evenodd"/>
        <path id="Path_1192" data-name="Path 1192" d="M60.418,88.822a.472.472,0,1,1,.472.475A.474.474,0,0,1,60.418,88.822Zm.472.361a.361.361,0,1,0-.359-.361A.36.36,0,0,0,60.889,89.183Zm-.064-.152h-.1v-.418H60.9a.184.184,0,0,1,.105.021.124.124,0,0,1,.053.1.114.114,0,0,1-.072.108l.077.184H60.96l-.064-.165h-.071v-.071h.054a.119.119,0,0,0,.059-.008.058.058,0,0,0,.025-.048.053.053,0,0,0-.023-.043.134.134,0,0,0-.062-.008h-.051v.343h0ZM29.39,89.3H27.571l1.081-5.739L26.163,89.3H24.5l-.3-5.706L23.117,89.3H21.466l1.411-7.465h2.838l.15,4.621,2-4.621h2.958L29.39,89.3Zm20.329-.074a4.685,4.685,0,0,1-1.307.2c-.931,0-1.439-.47-1.439-1.333a3.078,3.078,0,0,1,.054-.545l.111-.594.085-.48.843-4.636h1.809l-.262,1.394h.928L50.292,84.7H49.36l-.479,2.533a1.431,1.431,0,0,0-.031.251c0,.314.188.45.621.45a1.705,1.705,0,0,0,.491-.057Zm5.313-5.947a.962.962,0,0,0-.206-.066l-.157-.036a1.015,1.015,0,0,0-.183-.015c-.6,0-1.028.268-1.585.986l.161-.92H51.415L50.307,89.3h1.82c.651-3.713.93-4.363,1.8-4.363a2.034,2.034,0,0,1,.23.015l.213.044ZM42.509,85.144c0,.767.429,1.3,1.4,1.692.745.305.86.394.86.67,0,.378-.328.548-1.056.548a5.873,5.873,0,0,1-1.649-.24l-.253,1.4.081.014.337.062c.109.019.269.037.481.053.438.034.776.05,1.015.05,1.942,0,2.839-.641,2.839-2.026a1.676,1.676,0,0,0-1.3-1.69c-.772-.307-.861-.376-.861-.659,0-.327.306-.5.9-.5a11.8,11.8,0,0,1,1.322.091l.262-1.405a14.407,14.407,0,0,0-1.619-.119C43.215,83.092,42.5,84.024,42.509,85.144ZM35.3,89.3H33.792l.035-.629a2.429,2.429,0,0,1-1.908.734,1.582,1.582,0,0,1-1.662-1.658c0-1.479,1.175-2.341,3.2-2.341a6.993,6.993,0,0,1,.741.047,1.326,1.326,0,0,0,.072-.394c0-.4-.317-.552-1.167-.552a6.685,6.685,0,0,0-1.512.169l-.252.064-.163.039.252-1.365a8.168,8.168,0,0,1,2.178-.322c1.563,0,2.39.617,2.39,1.781a6.284,6.284,0,0,1-.148,1.2l-.38,2.154-.064.386-.046.309-.031.211L35.3,89.3Zm-1.327-2.7a3.272,3.272,0,0,0-.407-.025c-1.031,0-1.553.31-1.553.924a.6.6,0,0,0,.653.619A1.4,1.4,0,0,0,33.977,86.592Zm7.295,2.574a7.054,7.054,0,0,1-1.864.246c-2.034,0-3.094-.934-3.094-2.72a3.321,3.321,0,0,1,3.179-3.618,2.185,2.185,0,0,1,2.454,2.207,5.8,5.8,0,0,1-.223,1.5H38.107a1.163,1.163,0,0,0-.017.191c0,.7.539,1.063,1.6,1.063a4.819,4.819,0,0,0,1.889-.384l-.3,1.517ZM40.3,85.554c.01-.126.015-.23.015-.31a.754.754,0,0,0-.86-.782c-.579,0-.993.388-1.16,1.088Zm20.384.991a3.2,3.2,0,0,1-3.533,2.915,2.593,2.593,0,0,1-2.889-2.8,3.391,3.391,0,0,1,3.582-3.61,2.635,2.635,0,0,1,2.889,2.74,3.851,3.851,0,0,1-.049.753Zm-1.873-.777c0-.635-.256-1.235-1-1.235-.928,0-1.5,1.105-1.5,2.081,0,.823.394,1.376,1.045,1.364a1.807,1.807,0,0,0,1.4-1.486A4.176,4.176,0,0,0,58.814,85.768Z" transform="translate(-15.861 -60.463)" fill="#fff" fill-rule="evenodd"/>
      </g>
    </g>
  </g>
</svg>
