<svg xmlns="http://www.w3.org/2000/svg" width="64" height="34" viewBox="0 0 64 34">
  <g id="RUPAY" transform="translate(-912 -757)">
    <rect id="Rectangle_48" data-name="Rectangle 48" width="64" height="34" rx="5" transform="translate(912 757)" fill="#e5e5e5"/>
    <g id="rupay-2" data-name="rupay" transform="translate(1046.2 569.6)">
      <path id="Path_1193" data-name="Path 1193" d="M401.324,208l3.284,6.529-6.908,6.539Z" transform="translate(-477.51 -10.473)" fill="#018c45"/>
      <path id="Path_1194" data-name="Path 1194" d="M377.824,208l3.284,6.529-6.908,6.539Z" transform="translate(-456.294 -10.473)" fill="#f47920"/>
      <path id="Path_1195" data-name="Path 1195" d="M-125.856,201.482h1.593a2.315,2.315,0,0,0,1.224-.243,1.4,1.4,0,0,0,.554-.855c.117-.418.087-.7-.078-.865a1.853,1.853,0,0,0-1.185-.243h-1.506Zm-5.344,6.733,3.284-11.815h5.247c1.642,0,2.73.262,3.294.8s.661,1.4.33,2.614a4.457,4.457,0,0,1-.933,1.8,4.3,4.3,0,0,1-1.642,1.127,1.434,1.434,0,0,1,1.108.826,3.013,3.013,0,0,1-.058,1.8l-.4,1.652v.049c-.117.466-.078.709.107.729l-.117.437h-3.546c.01-.282.039-.525.058-.738a4.9,4.9,0,0,1,.087-.5l.33-1.176a1.752,1.752,0,0,0,.019-1.292c-.155-.253-.505-.379-1.059-.379h-1.487l-1.156,4.071Zm21.871-8.716-2.419,8.716h-2.934l.359-1.273a5.671,5.671,0,0,1-1.584,1.137,3.824,3.824,0,0,1-1.671.379,2.634,2.634,0,0,1-1.234-.262,1.721,1.721,0,0,1-.768-.787,2.256,2.256,0,0,1-.194-1.137,12.767,12.767,0,0,1,.476-2.244l1.253-4.528h3.216l-1.253,4.5a2.642,2.642,0,0,0-.136,1.37c.1.253.34.389.738.389a1.348,1.348,0,0,0,1.03-.447,3.158,3.158,0,0,0,.67-1.331l1.244-4.489h3.206Zm4.149,2.215h1.137a3.285,3.285,0,0,0,1.545-.262,1.52,1.52,0,0,0,.622-.942c.126-.457.1-.768-.1-.942a2.342,2.342,0,0,0-1.409-.262h-1.127Zm-5.315,6.5,3.274-11.815h4.508a10.92,10.92,0,0,1,2.312.185,2.859,2.859,0,0,1,1.292.6,2.45,2.45,0,0,1,.748,1.38,4.511,4.511,0,0,1-.165,1.943,5.62,5.62,0,0,1-1.924,3.041,5.482,5.482,0,0,1-3.41,1.049h-2.108l-1.01,3.614Zm16.527-3.9a10.7,10.7,0,0,1-1.331.408c-.865.233-1.351.544-1.457.923a.6.6,0,0,0,.078.583.773.773,0,0,0,.612.2,1.965,1.965,0,0,0,1.283-.4,2.509,2.509,0,0,0,.729-1.273c.029-.126.058-.214.068-.282Zm-.777,3.9.029-.826a5.742,5.742,0,0,1-1.574.865,5.044,5.044,0,0,1-1.681.282,2.251,2.251,0,0,1-1.914-.729,2.308,2.308,0,0,1-.175-2.05,3.227,3.227,0,0,1,1.263-1.914,7.349,7.349,0,0,1,3.031-.894c.175-.029.418-.049.719-.087,1.049-.117,1.632-.4,1.759-.855.068-.253.029-.437-.126-.544a1.405,1.405,0,0,0-.826-.175,1.472,1.472,0,0,0-.826.214,1.251,1.251,0,0,0-.5.661h-3.129a3.613,3.613,0,0,1,1.729-2.215,6.736,6.736,0,0,1,3.42-.748,7.2,7.2,0,0,1,1.788.194,2.618,2.618,0,0,1,1.156.534,1.606,1.606,0,0,1,.544.942,3.875,3.875,0,0,1-.185,1.506l-1.351,4.858a1.1,1.1,0,0,0-.029.428.475.475,0,0,0,.175.3l-.068.243h-3.236Zm3.255,3.44.709-2.585h.923a1.269,1.269,0,0,0,.719-.175.935.935,0,0,0,.36-.573,1.464,1.464,0,0,0,.068-.369,3.882,3.882,0,0,0,0-.476l-.5-7.987h3.255L-86,204.775l2.837-5.286h3.022l-5.023,8.677c-.573.972-.981,1.632-1.244,2a4,4,0,0,1-.748.826,2.727,2.727,0,0,1-1.03.554,6.688,6.688,0,0,1-1.71.165c-.223,0-.476,0-.748-.019-.262,0-.554-.019-.845-.039" fill="#29387e"/>
    </g>
  </g>
</svg>
